<?xml version="1.0" standalone="no"?>
<!DOCTYPE svg PUBLIC "-//W3C//DTD SVG 1.1//EN" "http://www.w3.org/Graphics/SVG/1.1/DTD/svg11.dtd" >
<svg xmlns="http://www.w3.org/2000/svg">
<metadata>
Created by FontForge 20120731 at Tue Nov 29 09:17:58 2016
 By admin
</metadata>
<defs>
<font id="iconfont" horiz-adv-x="1024" >
  <font-face 
    font-family="iconfont"
    font-weight="500"
    font-stretch="normal"
    units-per-em="1024"
    panose-1="2 0 6 3 0 0 0 0 0 0"
    ascent="896"
    descent="-128"
    x-height="792"
    bbox="0 -212 1184 896"
    underline-thickness="0"
    underline-position="0"
    unicode-range="U+0078-E863"
  />
<missing-glyph 
 />
    <glyph glyph-name=".notdef" 
 />
    <glyph glyph-name=".notdef" 
 />
    <glyph glyph-name=".null" horiz-adv-x="0" 
 />
    <glyph glyph-name="nonmarkingreturn" horiz-adv-x="341" 
 />
    <glyph glyph-name="glyph3" unicode="x" horiz-adv-x="1001" 
d="M281 543q-27 -1 -53 -1h-83q-18 0 -36.5 -6t-32.5 -18.5t-23 -32t-9 -45.5v-76h912v41q0 16 -0.5 30t-0.5 18q0 13 -5 29t-17 29.5t-31.5 22.5t-49.5 9h-133v-97h-438v97zM955 310v-52q0 -23 0.5 -52t0.5 -58t-10.5 -47.5t-26 -30t-33 -16t-31.5 -4.5q-14 -1 -29.5 -0.5
t-29.5 0.5h-32l-45 128h-439l-44 -128h-29h-34q-20 0 -45 1q-25 0 -41 9.5t-25.5 23t-13.5 29.5t-4 30v167h911zM163 247q-12 0 -21 -8.5t-9 -21.5t9 -21.5t21 -8.5q13 0 22 8.5t9 21.5t-9 21.5t-22 8.5zM316 123q-8 -26 -14 -48q-5 -19 -10.5 -37t-7.5 -25t-3 -15t1 -14.5
t9.5 -10.5t21.5 -4h37h67h81h80h64h36q23 0 34 12t2 38q-5 13 -9.5 30.5t-9.5 34.5q-5 19 -11 39h-368zM336 498v228q0 11 2.5 23t10 21.5t20.5 15.5t34 6h188q31 0 51.5 -14.5t20.5 -52.5v-227h-327z" />
    <glyph glyph-name="shezhi" unicode="&#xe695;" 
d="M848 271q47 0 79.5 33t32.5 79.5t-32.5 79t-79.5 32.5h-19q-6 17 -14 33l14 14q33 32 33 78.5t-33 79.5t-79.5 33t-78.5 -33l-14 -14q-16 8 -33 14v19q0 47 -32.5 79.5t-79 32.5t-79.5 -32.5t-33 -79.5v-19q-16 -6 -33 -14l-13 14q-33 33 -79.5 33t-79 -33t-32.5 -79.5
t32 -78.5l14 -14q-8 -16 -13 -33h-20q-46 0 -79 -32.5t-33 -79t33 -79.5t79 -33h20q5 -16 13 -32l-14 -14q-32 -33 -32 -79.5t32.5 -79t79 -32.5t79.5 33l13 13q16 -7 33 -13v-20q0 -46 33 -79t79.5 -33t79 33t32.5 79v20q17 6 33 13l14 -13q32 -33 78.5 -33t79.5 32.5
t33 79t-33 79.5l-14 14q8 16 14 32h19zM789 185q17 -16 17 -39.5t-17 -39.5q-15 -16 -39 -16t-40 16l-43 43l-18 -10q-29 -16 -60 -25l-21 -6v-61q0 -23 -16.5 -39.5t-39.5 -16.5t-39.5 16.5t-16.5 39.5v61l-20 6q-32 9 -60 25l-19 10l-43 -43q-16 -16 -39.5 -16t-39.5 16
t-16 39.5t16 39.5l43 43l-10 19q-16 28 -25 60l-6 20h-61q-23 0 -39.5 16.5t-16.5 40t16.5 39.5t39.5 16h61l6 21q9 32 25 60l10 18l-43 43q-16 17 -16 40t16 40q16 15 39.5 15t39.5 -15l43 -44l19 11q28 15 60 25l20 5v61q0 24 16.5 40t39.5 16t39.5 -16t16.5 -40v-61
l21 -5q32 -10 60 -25l18 -11l43 44q16 15 40 15t39 -15q17 -17 17 -40t-17 -40l-43 -43l11 -18q15 -28 24 -60l6 -21h61q23 0 39.5 -16t16.5 -39.5t-16.5 -40t-39.5 -16.5h-61l-6 -20q-9 -32 -24 -60l-11 -19zM512.5 551q-69.5 0 -119 -49t-49.5 -118.5t49.5 -119t119 -49.5
t118.5 49.5t49 119t-49 118.5t-118.5 49zM512.5 271q-46.5 0 -79.5 33t-33 79.5t33 79t79.5 32.5t79 -32.5t32.5 -79t-32.5 -79.5t-79 -33z" />
    <glyph glyph-name="sousuo" unicode="&#xe603;" 
d="M894 77l-239 242q73 77 73 205t-86.5 217t-212.5 89t-215 -90t-89 -216q0 -127 88 -213.5t214 -86.5q115 0 188 57l241 -244q7 -6 16 -6t20 11q7 7 8 17.5t-6 17.5zM173 527.5q0 105.5 74 180t178.5 74.5t178.5 -74.5t74 -180t-74 -180t-178.5 -74.5t-178.5 74.5t-74 180
z" />
    <glyph glyph-name="touxiang" unicode="&#xe66b;" 
d="M384 213q-40 30 -62.5 74.5t-22.5 96.5q0 88 62 150t150.5 62t150.5 -62t62 -150q0 -52 -23 -96.5t-62 -74.5q72 -26 129 -77.5t89 -121.5q103 125 103 287q0 91 -35.5 174t-95.5 143t-143 95.5t-174 35.5t-174 -35.5t-143 -95.5t-96 -143t-36 -174q0 -161 103 -285
q32 69 89 120.5t129 76.5z" />
    <glyph glyph-name="fanhui" unicode="&#xe641;" 
d="M629 736l-298 -308v0l-43 -44l43 -44v0l298 -308l43 44l-299 308l299 308z" />
    <glyph glyph-name="jiantouyou" unicode="&#xe616;" 
d="M228 -69l55 -55l509 508l-509 509l-55 -55l454 -454zM228 -69z" />
    <glyph glyph-name="lajitong" unicode="&#xe63d;" 
d="M210 549h608v-27v-512q0 -40 -17 -57t-56 -17h-467q-36 0 -53 16t-17 51v525q0 1 2 21zM371 48v394h-53v-394h53zM482 48v394h-53v-394h53zM594 48v394h-53v-394h53zM705 48v394h-53v-394h53zM151 613q2 57 3 61q8 41 49 44q10 1 94 2h30v46q0 29 16 47t44 18
q134 2 266 0q28 0 43 -16.5t16 -45.5v-49q66 0 69 1q58 3 78 -24.5t12 -83.5h-720zM382 718q230 0 262 1q12 0 15.5 5t2 15.5t-1.5 13.5q2 12 -2.5 18.5t-18.5 6.5h-190h-67v-60z" />
    <glyph glyph-name="35" unicode="&#xe632;" 
d="M959 485h-341l-106 327l-106 -327h-341l276 -202l-105 -327l276 202l276 -202l-105 327zM732 34l-220 161l-220 -161l84 260l-220 161h272l84 260l84 -260h272l-220 -161z" />
    <glyph glyph-name="nan" unicode="&#xe614;" 
d="M550 519l71 255l96 -170q7 -12 21 -12q6 0 11 3q9 5 11.5 14.5t-2.5 18.5l-125 221q-4 8 -14 11t-18 -2l-233 -132q-8 -5 -11 -14.5t2 -18t14.5 -11t18.5 1.5l183 104l-71 -256q-33 7 -65 7q-84 0 -158 -41q-56 -32 -95.5 -83.5t-55.5 -110t-9 -122.5t39 -120
q43 -76 118 -119.5t161 -43.5q84 0 157 42q57 32 96 83t55 109.5t9 122.5t-39 121q-57 101 -167 142zM573 -18q-63 -35 -134 -35q-73 0 -137 37t-100 101q-27 48 -33 102.5t7.5 104.5t47 93.5t81.5 70.5q62 35 133 35q74 0 137.5 -37t99.5 -101q28 -48 34 -102.5t-8 -104
t-47 -93t-81 -71.5z" />
    <glyph glyph-name="shuilv" unicode="&#xe667;" 
d="M966 216q-32 42 -110 -4q4 19 -8 31t-32 12q-42 0 -69 -27q-23 28 -48 27t-70 -29q-37 -23 -57 -34q-4 -3 -11 -6q11 -2 18 -2q27 0 40.5 -0.5t34.5 -2.5t31 -6.5t21.5 -12t16.5 -20.5t5 -30q0 -26 -18.5 -43t-39 -23t-40.5 -6h-154q-28 0 -59.5 16.5t-48.5 33.5l-17 16
q73 -30 125 -30h153q2 0 7 0.5t15 2.5t18.5 5.5t15.5 11t7 16.5q0 23 -20.5 29.5t-92.5 6.5q-27 0 -58.5 9t-48.5 18l-18 10q-63 46 -82 58q-22 13 -28 16.5t-25.5 12.5t-32 9t-33.5 -2.5t-44 -11.5q-51 -20 -161 -72v0l102 -226l52 34q22 14 37.5 15t44.5 -13
q167 -86 174 -90q21 -10 39.5 -14t31 -4.5t28.5 4.5t22 8.5t22 13t20 12.5q24 14 155 100t155 103q61 43 35 78zM530 500q-49 0 -84 -34.5t-35 -84t35 -84.5t84 -35t84 35t35 84.5t-35 84t-84 34.5zM548 327h-36v72h-28l36 36h28v-108zM673.5 644q-34.5 0 -58.5 -24.5
t-24 -58.5q0 -9 2 -19q50 -20 80 -64h1q34 0 58.5 24.5t24.5 58.5t-24.5 58.5t-59 24.5zM686 523h-25v51h-19l25 25h19v-76z" />
    <glyph glyph-name="mingcheng" unicode="&#xe61d;" 
d="M853 724l-281 42l-273 -273v0l-12 -12l-159 -158l324 -325l444 444zM196 323l103 102l256 -256l-103 -102zM589 203l-256 256l256 256l213 -43l43 -213zM684 553zM636 553q0 20 14 34t34 14t34 -14t14 -34t-14 -34t-34 -14t-34 14t-14 34z" />
    <glyph glyph-name="refurbish" unicode="&#xe63b;" 
d="M927 364v20q0 113 -55.5 209t-151 151.5t-208.5 55.5q-118 0 -218 -62q-25 -14 -25 -42q0 -20 14 -34t34 -14q15 0 27 9q77 47 168 47q87 0 160.5 -43t116.5 -116.5t43 -160.5q0 -10 -1 -20h-93l143 -205l143 205h-97zM707 120q-15 0 -27 -9q-77 -47 -168 -47
q-87 0 -160.5 43t-116.5 116.5t-43 160.5q0 10 1 20h93l-143 205l-143 -205h97v-20q0 -113 55.5 -209t151 -151.5t208.5 -55.5q118 0 218 62q25 14 25 42q0 20 -14 34t-34 14z" />
    <glyph glyph-name="renquntianchong" unicode="&#xe668;" 
d="M962 -64q0 -11 -8.5 -19.5t-20 -8.5t-19.5 8.5t-8 19.5q0 99 -62 175.5t-156 98.5v1q-13 4 -21 14.5t-8 24.5q0 15 9.5 25.5t23.5 13.5q45 20 73 61.5t28 92.5q0 70 -49.5 119.5t-119.5 49.5v0q-11 1 -18.5 9t-7.5 19t7.5 19t18.5 8v1h0.5h1h0.5v0l0.5 -0.5t1.5 -0.5
q92 -1 156.5 -66.5t64.5 -157.5q0 -60 -29 -110.5t-78 -80.5q98 -37 159 -123t61 -193v0zM90 -92q-12 0 -20 8.5t-8 19.5q0 107 61 193t159 123q-50 30 -79 80.5t-29 110.5q0 93 66 159t159 66t159 -66t66 -159q0 -60 -29 -110.5t-78 -80.5v0q98 -37 159 -123t61 -193
q0 -11 -8.5 -19.5t-19.5 -8.5h-619z" />
    <glyph glyph-name="youhuizhuanqu" unicode="&#xe6ac;" 
d="M561 312l-41 -86q-7 -16 -11 -29q-3 12 -11 29l-41 86h-63l64 -128h-53v-45h75v-24h-75v-45h75v-56h57v56h77v45h-77v24h77v45h-54l64 128h-63zM511 810q-104 0 -198.5 -40.5t-162.5 -108.5t-108.5 -162.5t-40.5 -198t40.5 -198t108.5 -162.5t162.5 -108.5t198.5 -40.5
t198.5 40.5t163 108.5t108.5 162.5t40 198t-40 198t-108.5 162.5t-163 108.5t-198.5 40.5zM454 687q11 0 27 8t26 15l11 8q38 -31 62 -31q10 0 26 8t27 16l11 8l-64 -149h-123l-65 147q38 -30 62 -30zM582 555v-45h-127v45h127zM570 -116q-22 -2 -48 -2t-41 1l-16 1
q-6 0 -16 1t-40 6t-57 13.5t-60 26.5t-57 41.5t-40 62t-16 84.5q0 37 9.5 73.5t25.5 66.5t36.5 59t43.5 52t46 43.5t43.5 35.5t36.5 25.5t25.5 15.5l9.5 5h126q11 -7 28.5 -20t63 -54.5t80 -84t63 -103.5t28.5 -118q0 -41 -15 -76.5t-39.5 -59t-53.5 -41.5t-58.5 -28
t-53.5 -16t-39 -8.5t-15 -1.5z" />
    <glyph glyph-name="yuedu" unicode="&#xe639;" 
d="M914 754q-118 14 -215 14q-102 0 -154 -28q-20 -9 -35 -22q-15 13 -35 22q-53 28 -155 28q-96 0 -214 -14q-30 -1 -50.5 -21.5t-20.5 -50.5v-581q0 -30 21 -51t50 -21h1h4q62 8 126 12q123 9 163 -3v0h1h0.5t1 -0.5l0.5 -0.5v0q7 -1 29 -8q50 -17 78 -17q23 0 73 15
q36 10 45 10q5 0 10 2q34 4 75 5t72 -1t62.5 -5.5t43 -5.5t17.5 -3h2h2q30 0 51 21t21 51v581q0 30 -20.5 50.5t-49.5 21.5zM413 87q-76 22 -307 -7q-8 0 -13.5 6t-5.5 15v581q0 9 6 15t14 6h2h1q114 13 210 13q89 0 132 -21v0l1 -1q10 -5 20 -12t11 -11v-600v-4
q-12 3 -36 11q-24 7 -35 9zM933 101q0 -8 -5.5 -14t-13.5 -7q-159 28 -289 8h-3q-16 -1 -53 -12q-23 -7 -34 -9v4v600q2 4 11.5 11t20.5 12v0l1 1q43 21 131 21q96 0 210 -13h2h1q9 0 15 -6t6 -15v-581zM148 480q78 19 165 19q63 0 106 -24q6 -3 13 -3q15 0 22 13
q5 9 2 19.5t-12 15.5q-55 30 -130 31h-1q-93 0 -178 -22q-10 -2 -15.5 -11t-3 -19.5t11.5 -16t20 -2.5zM445 311q-69 31 -132 31q-91 0 -159 -19q-10 -2 -15 -4q-10 -2 -15.5 -11t-3 -19.5t12 -16t19.5 -2.5q5 1 16 4q61 17 145 17q52 0 111 -27q5 -2 11 -2q16 0 23 15
q4 10 0.5 19.5t-13.5 14.5zM882 535q-115 23 -185 19q-72 -1 -122 -28q-9 -5 -12 -15t2 -20q7 -13 23 -13q6 0 12 3q39 22 98 22h1h1q63 4 172 -18q10 -2 19 4t11 16.5t-4 19t-16 10.5z" />
    <glyph glyph-name="yijianfankui" unicode="&#xe643;" horiz-adv-x="1060" 
d="M963 488q-10 0 -17 -7t-7 -17v-433q0 -20 -14.5 -34t-34.5 -14h-731q-20 0 -34 14t-14 34v706q0 20 14 34t34 14h471q10 0 17 7.5t7 17.5t-7 17t-17 7h-475q-39 0 -66 -27t-27 -66v-714q0 -39 27 -66t66 -27h740q38 0 65.5 27t27.5 66v437q0 10 -7.5 17t-17.5 7v0z
M511 176l463 463q21 21 19 52t-25 54l-44 44q-23 23 -53.5 24.5t-51.5 -19.5l-464 -463zM853 760q8 8 20 7t20 -9l44 -44q9 -9 9.5 -20.5t-7.5 -19.5l-51 -52l-85 87zM852 586l-345 -345l-86 86l345 346zM355 330l-47 -175q-4 -12 5 -21t21 -6l175 48l-36 36l-113 -31
l31 113zM355 330z" />
    <glyph glyph-name="xiajiantou" unicode="&#xe637;" 
d="M533 248v0v0l205 203q7 7 7 17.5t-7 17.5t-17.5 7t-17.5 -7l-187 -186l-186 188q-7 7 -17.5 7t-18 -7t-7.5 -17.5t8 -17.5l202 -205h0.5h0.5q7 -7 17.5 -7.5t17.5 7.5z" />
    <glyph glyph-name="huo" unicode="&#xe69c;" 
d="M854 199v-45q-1 -5 -2 -6q-13 -68 -14 -71q-29 -99 -112 -169q-64 -56 -140 -74q-3 0 -53 -9h-45l-6 1q-71 5 -134 37q-125 64 -162 186q0 2 -11 57v42q4 30 5 32q11 62 55 123q4 5 33 44.5t43 60.5q42 62 32 130q-1 5 -2.5 14.5t-2.5 13.5h2t1 1q74 -77 59 -216q5 5 6 5
q77 105 54 223q-16 82 -69 138q-7 8 -15.5 15.5t-20 17t-17.5 13.5h19h1q2 -1 3 -2q44 -3 91 -26q92 -45 163 -136q105 -135 117 -285q4 -61 -12 -121q-1 -2 -16 -45q31 13 50 41q52 75 39 179l5 -6q36 -56 48 -114zM504 277l-2 -1q-3 -44 -4 -49q-4 -40 -20 -71
q-17 -34 -64 -58q-45 -23 -48 -68q-4 -54 35 -83q35 -27 87 -25q81 2 103 76q15 48 2 110q-16 81 -59 138q-1 1 -30 31v0z" />
    <glyph glyph-name="shuaxin" unicode="&#xe600;" 
d="M873 190l-73 142l-145 -54l12 -32l98 37q-31 -82 -101.5 -131.5t-156.5 -49.5q-94 0 -168.5 58.5t-98.5 152.5l-33 -9q27 -104 110.5 -170t189.5 -66q54 0 104 18q48 17 89 50q64 52 95 130l47 -91zM363 492l-9 33l-100 -27q33 77 101.5 122.5t151.5 45.5q91 0 164 -54.5
t100 -143.5l32 10q-14 48 -43 89q-28 41 -67 70q-83 63 -186 63t-186 -63q-39 -30 -67 -70q-17 -24 -29 -51l-43 91l-31 -15l67 -140z" />
    <glyph glyph-name="pinglun" unicode="&#xe652;" 
d="M286.5 435q-23.5 0 -40 -17t-16.5 -41t16.5 -41t40 -17t39.5 17t16 41t-16 41t-39.5 17zM511 435q-23 0 -39.5 -17t-16.5 -41t16.5 -41t39.5 -17t39.5 17t16.5 41t-16.5 41t-39.5 17zM735.5 435q-23.5 0 -40 -17t-16.5 -41t16.5 -41t40 -17t40 17t16.5 41t-16.5 41
t-40 17zM848 726h-674q-47 0 -79.5 -34t-32.5 -82v-437q0 -49 34 -86.5t81 -37.5h171l153 -159q10 -11 20 0q90 102 149 159h175q47 0 81 37.5t34 86.5v437q0 48 -33 82t-79 34zM904 173q0 -25 -17.5 -45.5t-41.5 -20.5h-172q-9 0 -19 -5.5t-15 -10.5l-5 -6l-121 -125
l-121 125q-23 22 -43 22h-172q-24 0 -41.5 20.5t-17.5 45.5v437q0 24 16.5 41t39.5 17h674q23 0 39.5 -17t16.5 -41v-437z" />
    <glyph glyph-name="shoucang" unicode="&#xe63c;" 
d="M257 -62q-11 0 -19 7q-18 14 -12 37l76 271l-226 201q-17 15 -9 37t30 22h288l94 283q8 23 31 23v0q23 0 30 -22l98 -284h287q23 0 30.5 -22.5t-10.5 -37.5l-229 -189l80 -282q6 -23 -12 -37t-37 -1l-237 165l-235 -165q-8 -6 -18 -6zM510 183q10 0 18 -6l181 -125
l-62 215q-6 22 11 36l174 143h-216q-23 0 -31 22l-75 216l-71 -215q-8 -23 -31 -23h-223l175 -157q16 -14 10 -35l-57 -202l179 125q8 6 18 6z" />
    <glyph glyph-name="gengduo" unicode="&#xe675;" 
d="M4 -57v51h1020v-51h-1020zM4 325h1020v-51h-1020v51zM4 656h1020v-51h-1020v51z" />
    <glyph glyph-name="iconzhifubao" unicode="&#xe688;" 
d="M512 683q-104 0 -192.5 -51t-139.5 -139.5t-51 -192.5t51 -192.5t139.5 -139.5t192.5 -51t192.5 51t139.5 139.5t51 192.5t-51 192.5t-139.5 139.5t-192.5 51zM512 -41q-92 0 -170.5 46t-124.5 124.5t-46 170.5t46 170.5t124.5 124.5t170.5 46t170.5 -46t124.5 -124.5
t46 -170.5q0 -44 -11 -85q-86 16 -213 58q18 32 31 66.5t18 52.5l4 19h-7h-60h-63v49h155v22h-155v74h-71v-74h-141v-22h141v-49h-120v-21h244q0 -2 -6 -19.5t-14.5 -40.5t-15.5 -36q-26 11 -50 18.5t-43 12t-37 7t-30.5 3t-25 -0.5t-20 -2.5t-16 -4t-11.5 -4.5t-8.5 -4.5
l-5.5 -2.5q-33 -22 -45 -51.5t-5 -56t23.5 -48.5t37.5 -32q79 -24 147 5t118 87q3 -3 209 -91q-46 -77 -124 -123.5t-171 -46.5zM545 252l-8 -11q-30 -39 -64.5 -60.5t-63.5 -24.5t-46 -1.5t-27 6.5q-25 6 -36.5 32.5t-4.5 55.5t33 42q13 8 28.5 11t28 4.5t30.5 -2.5
t27.5 -6t29 -10.5t25.5 -11.5l26 -13z" />
    <glyph glyph-name="gengduo1" unicode="&#xe63e;" 
d="M61 811h927v-144h-927v144zM61 471h927v-145h-927v145zM61 130h927v-144h-927v144z" />
    <glyph glyph-name="miantiaofenxiangfuzhilianjie" unicode="&#xe62a;" 
d="M512 896q-104 0 -199 -40.5t-163.5 -109t-109 -163.5t-40.5 -199t40.5 -199t109 -163.5t163.5 -109t199 -40.5t199 40.5t163.5 109t109 163.5t40.5 199t-40.5 199t-109 163.5t-163.5 109t-199 40.5v0zM444 129q-38 -38 -93 -38t-93.5 38.5t-38.5 93.5t38 93l133 133
q39 39 93.5 39t93.5 -39l4 -4l2 -2q3 -3 5 -7l0.5 -0.5l0.5 -0.5v0q11 -21 -6 -37.5t-37 -5.5q-1 -1 -14 12v0q-20 20 -48.5 20.5t-48.5 -20.5l-133 -132q-20 -21 -20 -49.5t20 -48.5v0q20 -20 48.5 -20t49.5 20l80 80q44 -22 88 -1l-124 -124v0zM767 452l-133 -133
q-39 -39 -93.5 -39t-93.5 39l-4 4l-2 2q-3 3 -5 7l-0.5 0.5l-0.5 0.5v0q-11 21 6 37.5t37 5.5q1 1 14 -12v0q20 -20 48.5 -20.5t48.5 20.5l133 132q20 21 20 49.5t-20 48.5v0q-20 20 -48.5 20t-49.5 -20l-80 -80q-44 22 -88 1l124 124q38 38 93 38t93.5 -38.5t38.5 -93.5
t-38 -93v0zM767 452z" />
    <glyph glyph-name="iconfontcolor64" unicode="&#xe666;" 
d="M512 716q-172 0 -294 -122t-122 -294t122 -294t294 -122t294 122t122 294t-122 294t-294 122zM544 16v-43q0 -7 -4.5 -11.5t-11.5 -4.5h-32q-7 0 -11.5 4.5t-4.5 11.5v44q-135 20 -135 173v0v1.5v1.5q0 15 11 26t26.5 11t26.5 -11t11 -26v-3v-1q1 -117 92 -117
q86 0 89 97q0 64 -109 104q-138 52 -138 161q7 130 126 152v41q0 7 4.5 11.5t11.5 4.5h32q7 0 11.5 -4.5t4.5 -11.5v-41q116 -21 123 -161v0v-0.5v-0.5q0 -15 -11 -26t-26.5 -11t-26.5 11t-11 26v4q-6 95 -83 98q-75 -6 -78 -86q0 -61 101 -97q144 -52 147 -171
q-8 -138 -135 -156zM512 812q-139 0 -257 -68.5t-186.5 -186.5t-68.5 -257t68.5 -257t186.5 -186.5t257 -68.5t257 68.5t186.5 186.5t68.5 257t-68.5 257t-186.5 186.5t-257 68.5zM512 -164q-192 0 -328 136t-136 328t136 328t328 136t328 -136t136 -328t-136 -328
t-328 -136z" />
    <glyph glyph-name="20140915070601756easyiconnet" unicode="&#xe657;" horiz-adv-x="1184" 
d="M864 812q-123 0 -215 -83q-33 -31 -57 -69q-24 38 -57 69q-92 83 -215 83q-132 0 -226 -94t-94 -226q0 -89 29.5 -163.5t94.5 -150.5q43 -51 119 -117.5t156.5 -128t119.5 -90t64 -46.5q4 -3 9 -3t9 3q25 18 64 46.5t119.5 90t156.5 128t119 117.5q65 76 94.5 150.5
t29.5 163.5q0 132 -94 226t-226 94zM1036 198q-50 -58 -156 -147t-170 -136t-118 -86q-54 39 -118 86t-170 136t-156 147q-61 72 -88.5 141.5t-27.5 152.5q0 119 84.5 203.5t203.5 84.5q111 0 193 -75q40 -36 65 -85q4 -8 14 -8t14 8q25 49 65 85q82 75 193 75
q119 0 203.5 -84.5t84.5 -203.5q0 -83 -27.5 -152.5t-88.5 -141.5z" />
    <glyph glyph-name="shouji" unicode="&#xe61e;" 
d="M702 760h-378q-19 0 -33 -14t-14 -33v-667q0 -20 14 -34t33 -14h378q20 0 33.5 14t13.5 34v667q0 19 -13.5 33t-33.5 14zM407 713h212q5 0 8.5 -3.5t3.5 -8.5t-3.5 -8.5t-8.5 -3.5h-212q-5 0 -8.5 3.5t-3.5 8.5t3.5 8.5t8.5 3.5zM513 22q-10 0 -16.5 7t-6.5 17t6.5 17
t16.5 7t17 -7t7 -17t-7 -17t-17 -7zM702 93h-378v548h378v-548z" />
    <glyph glyph-name="shouye" unicode="&#xe633;" 
d="M954 384l-426 440q-6 7 -15 7t-15 -7l-427 -440q-6 -7 -6 -15.5t6.5 -14.5t15 -6t14.5 6l29 30v-424q0 -9 6 -15t15 -6h234q8 0 14.5 6t6.5 15l1 297h211v-297q0 -9 6.5 -15t15.5 -6h233q9 0 15 6t6 15v424l29 -30q6 -6 15 -6t15 6t6.5 14.5t-5.5 15.5zM852 423v-442
h-191v297q0 9 -6 15.5t-15 6.5h-255q-8 0 -14.5 -6.5t-6.5 -15.5v-297h-191v442q0 2 -1 4l341 352l339 -352v-4z" />
    <glyph glyph-name="qinglihuancun" unicode="&#xe647;" 
d="M511.5 -63q-91.5 0 -174 35.5t-142.5 95.5t-95.5 142.5t-35.5 174t35.5 174t95.5 142.5t142.5 95.5t174 35.5t174 -35.5t142.5 -95.5t95.5 -142.5t35.5 -174t-35.5 -174t-95.5 -142.5t-142.5 -95.5t-174 -35.5zM511.5 776q-106.5 0 -196.5 -52.5t-142.5 -142.5
t-52.5 -196.5t52.5 -196.5t142.5 -142.5t196.5 -52.5t196.5 52.5t142.5 142.5t52.5 196.5t-52.5 196.5t-142.5 142.5t-196.5 52.5zM485 328q-10 -10 -20 0l-19 20q-10 10 0 20l258 258q10 10 20 0l20 -19q10 -10 0 -20zM289 369l198 -198l10 115l54 54l-12 -234
q-1 -18 -18 -24.5t-29 5.5l-279 279q-13 13 -6.5 29.5t24.5 18.5l229 17l-51 -51z" />
    <glyph glyph-name="renwu" unicode="&#xe863;" 
d="M391 153l93 -186l33 1l239 511l10 20l3 7l-10 6l-5 4l-10 14l-6 -3l-20 -9l-512 -239v-34zM635 429l-231 -232l-127 64zM667 397l-167 -359l-64 127zM512.5 752q-91.5 0 -174.5 -35.5t-143 -95.5t-96 -143.5t-36 -174.5t36 -174.5t96 -143.5t143 -95.5t174.5 -35.5
t174.5 35.5t143.5 95.5t96 143.5t35.5 174.5t-35.5 174.5t-96 143.5t-143.5 95.5t-174.5 35.5zM512.5 707q109.5 0 202.5 -54t147.5 -147.5t54.5 -203t-54.5 -202.5t-147.5 -147t-202.5 -54t-202.5 54t-147 147t-54 203t54 203t147 147t202.5 54z" />
    <glyph glyph-name="erweima" unicode="&#xe623;" 
d="M279 352h243v243h-243v-243zM333 540h135v-134h-135v134zM521.5 863q-98.5 0 -188.5 -38.5t-154.5 -103t-103 -154.5t-38.5 -188.5t38.5 -188.5t103 -155t154.5 -103.5t188.5 -38.5t188.5 38.5t155 103.5t103.5 155t38.5 188.5t-38.5 188.5t-103.5 154.5t-155 103
t-188.5 38.5zM226 648h350v-349h-350v349zM845 379v-54h-108v-54h108v-107h-54v53h-108v-80h108v-54h-296v54h-54v54h-54v-108h-162v161h54v-107h54v107h243v-53h-81v-54h134v80h54v162h54v107h54v-53h54v-54v0zM845 541h-54v53h-108v-53h54v-54h-54v-54h-54v161v0v55h216
v-54v0v-54v0z" />
    <glyph glyph-name="phone-line" unicode="&#xe60a;" 
d="M900 211q6 -6 13 -11q29 -24 41 -38v0v0v0q3 -3 5 -6t4 -4q0 -1 1 -2q1 -2 2 -3l6 -9v-1q15 -30 -4 -71q-18 -39 -57 -75q-81 -75 -154 -75q-11 0 -21 2q-74 9 -198 78q-133 73 -232.5 167.5t-176.5 220.5q-73 118 -83 189q-6 46 21 96q25 44 70 81q0 1 5 5q42 34 75 46
q17 8 32 8t30 -6v-1q5 -2 13 -6q35 -17 70 -64q23 -31 40 -59q21 -36 35 -68l1 -1l2 -7q14 -36 -14 -62q0 -1 -2 -3l-1 -1l-1 -1q-1 0 -3 -2q-4 -3 -5 -4h-1q-11 -8 -19 -12l-12 -8h-1q-11 -6 -32 -15q-19 -7 -31 -13q-11 -6 -14.5 -20.5t0.5 -19.5q31 -68 122 -155
q63 -60 157 -113q8 -5 17 -5q11 0 22 7.5t17 17.5q5 10 15 29l10 20v0q10 18 18 30q5 7 8 10q11 16 30 22q10 4 22 4q16 0 27 -6l21 -10v0q1 -1 4 -3q4 -2 10 -6q16 -10 33 -21q3 -2 7 -5zM720 249q-6 -7 -20 -32q-3 -5 -10 -18q-10 -20 -16 -31q-10 -18 -30.5 -32
t-43.5 -14q-20 0 -37 10q-98 56 -165 119q-97 92 -131 168q-10 22 -3 48q9 32 36 46q14 6 34 14q18 7 26 12q7 5 14 9q7 3 16 9l2 2q3 2 4 3l2 2v0q8 8 4 18l-1 1l-2 7q-13 30 -32 62q-16 26 -38 55q-28 39 -54 52h-1l-12 6q-6 3 -13 3t-17 -4l-1 -1q-26 -9 -63 -40
q-4 -3 -5 -4q-39 -32 -60 -70.5t-16 -69.5q9 -63 77 -174q74 -121 170 -211.5t224 -162.5q117 -64 183 -73q8 -1 16 -1q57 0 127 65q33 30 47 61q5 10 6 21t-2 16l-4 5v0v1q-3 3 -8 9q-11 12 -36 33q-40 33 -73 55q-26 17 -43 28l-20 9q-3 2 -9 2q-5 0 -9 -1q-7 -3 -10 -8z
" />
    <glyph glyph-name="xingbie" unicode="&#xe606;" 
d="M536 544q0 97 -69 166t-166.5 69t-166.5 -69t-69 -166q0 -93 63 -160.5t154 -74.5v-125h-114q-6 0 -10 -6t-4 -14.5t4 -14.5t10 -6h114v-131q0 -7 6 -12t14.5 -5t14.5 5t6 12v131h111q5 0 9 6t4 14.5t-4 14.5t-9 6h-111v125q90 9 151.5 76t61.5 159zM113 543.5
q0 77.5 55 133t133 55.5t133 -55.5t55 -133t-55 -132.5t-133 -55t-133 55t-55 132.5zM942 318q-18 45 -52.5 80t-79.5 53q-34 13 -70 17v236l90 -90q6 -6 15 -6t15.5 6.5t6.5 15.5t-7 15l-124 124q-6 6 -15 6t-15 -6l-124 -124q-7 -6 -7 -15t6.5 -15.5t15.5 -6.5t15 6l85 85
v-232q-35 -3 -68 -16q-45 -18 -79.5 -53t-53.5 -80q-17 -43 -17 -90t17 -90q19 -45 53.5 -80t79.5 -53q43 -17 90 -17t91 17q45 18 79.5 53t52.5 80q18 43 18 90t-18 90zM858.5 88.5q-57.5 -57.5 -139 -57.5t-139.5 57.5t-58 139.5t58 139.5t139.5 57.5t139 -57.5
t57.5 -139.5t-57.5 -139.5z" />
    <glyph glyph-name="cake-line" unicode="&#xe605;" 
d="M505 601h2q20 1 41 18t27 35q3 9 3 18.5t-2.5 19.5t-5.5 17.5t-9 18t-9.5 16t-10.5 15.5q-20 30 -23 41l-2 8q-5 24 -8 24q-30 -65 -43 -81q-36 -42 -32 -85q3 -22 26.5 -43.5t45.5 -21.5zM494 730q8 12 12 19q41 -55 31 -88q-3 -9 -11.5 -16.5t-18.5 -8.5q-6 1 -14 5
q-19 9 -23 23q-7 21 24 66zM869 87q-1 19 -1 26v183q0 9 1 28q2 49 -3 65q-5 15 -19.5 26t-38.5 19t-39 11.5t-41 8.5q-60 12 -161 19v76l-8 2q-57 13 -114 0l-7 -2v-78q-74 -3 -152 -19l-4 -1q-25 -5 -38.5 -8.5t-34.5 -11t-34 -18t-18 -24.5q-6 -18 -3 -66q1 -18 1 -25
v-182q0 -10 -1 -29q-2 -50 3 -65q17 -46 155 -69q95 -17 196 -17t201 17q140 23 157 69q6 17 3 65zM507 519h23v-211q-28 -5 -55 0l-1 211h33zM294 411h3q48 10 133 18h7q-1 -69 1 -113v-2h-1q-110 7 -187 31q-55 17 -56 27q0 3 3.5 7t28.5 13.5t68 18.5zM829 41
q-64 -51 -254 -60q-61 -3 -125 0q-192 9 -256 60v112v0v169q124 -52 318 -52t317 52v-281zM778 346l-5 -1q-83 -27 -206 -32v116l21 -1q47 -3 71 -5t59 -8.5t66 -17.5q42 -15 45 -24q1 -10 -51 -27z" />
    <glyph glyph-name="wode" unicode="&#xe634;" 
d="M512 857q-96 0 -183.5 -37.5t-151 -101t-100.5 -151t-37 -183.5t37 -183.5t100.5 -150.5t151 -100.5t183.5 -37.5t183.5 37.5t151 100.5t100.5 150.5t37 183.5t-37 183.5t-100.5 151t-151 101t-183.5 37.5zM512 -45q-117 0 -216 57.5t-156.5 156t-57.5 215.5t57.5 216
t156.5 156.5t216 57.5t216 -57.5t156.5 -156.5t57.5 -216t-57.5 -215.5t-156.5 -156t-216 -57.5zM792 34v2q0 3 -1 6q-9 77 -55.5 138t-116.5 91q41 28 64.5 72t23.5 95q0 83 -59 142.5t-143 59.5t-143 -59.5t-59 -142.5q0 -51 23.5 -95t64.5 -72q-69 -30 -115.5 -90
t-56.5 -136q-2 -4 -2 -9v-2v0v0v-1q0 -12 8.5 -20.5t20.5 -8.5t20.5 8.5t8.5 20.5v1h1q10 82 71 139.5t145 62.5q7 -1 13 -1t12 1q84 -5 145.5 -62.5t71.5 -139.5h1v-1q0 -12 8.5 -20.5t20 -8.5t20 8.5t8.5 20.5v1v0v0zM505 293q-60 0 -102.5 42.5t-42.5 102t42.5 102
t102.5 42.5t102 -42.5t42 -102t-42 -102t-102 -42.5v0zM505 293z" />
    <glyph glyph-name="fenxiang" unicode="&#xe646;" 
d="M767 298q-44 0 -82 -21.5t-62 -57.5l-183 105q19 38 19 77q0 23 -8 49l191 109q51 -55 125 -55q71 0 121.5 50t50.5 121t-50.5 121.5t-121.5 50.5t-121 -50.5t-50 -121.5q0 -22 8 -49l-191 -109q-51 55 -125 55q-71 0 -121.5 -50t-50.5 -121t50.5 -121t121.5 -50
q56 0 103 35l-1 -1l208 -119q-2 -17 -2 -18q0 -71 50 -121.5t121 -50.5t121.5 50.5t50.5 121.5t-50.5 121t-121.5 50zM767.5 778q42.5 0 72.5 -30t30 -72.5t-30 -73t-72.5 -30.5t-72.5 30.5t-30 73t30 72.5t72.5 30zM287.5 298q-42.5 0 -72.5 30t-30 73t30 73t72.5 30
t72.5 -30t30 -73t-30 -73t-72.5 -30zM767.5 24q-42.5 0 -72.5 30t-30 72.5t30 73t72.5 30.5t72.5 -30.5t30 -73t-30 -72.5t-72.5 -30z" />
    <glyph glyph-name="fenxiang1" unicode="&#xe651;" horiz-adv-x="1304" 
d="M1118 294q-14 0 -24 -10t-10 -24v-321q0 -31 -22 -52.5t-53 -21.5h-716q-31 0 -53 21.5t-22 52.5v674q0 31 22 53t53 22h234q14 0 23.5 10t9.5 24t-9.5 24t-23.5 10h-234q-59 0 -100.5 -42t-41.5 -101v-674q0 -59 41.5 -100.5t100.5 -41.5h716q59 0 101 41.5t42 100.5
v321q0 14 -10 24t-24 10v0zM406 95q-3 -14 5 -25.5t22 -13.5q3 -1 6 -1q12 0 21.5 8t11.5 20q3 15 10.5 44t38.5 104t72 138q83 124 197 195q108 68 244 84l-111 -114q-10 -11 -9.5 -25t10.5 -23q10 -10 24 -10t24 10l171 177v0q1 0 1 1v0h1v1v0l0.5 0.5l0.5 0.5v0q0 1 1 1
v0.5v0.5v0l1 1v0v0.5v0.5l1 1v0v0v0.5t0.5 1l0.5 0.5v1l0.5 0.5l0.5 0.5v1v1v0v1q1 0 1 0.5v0.5v0v1v1v0v1v0v1v0l1 1v0v1v0v0v0v1v0v0v2v0v1v0l-1 1v0v0v0v1v1v0v1v0v0v0v1v0.5t-1 0.5v1v1v0v1v0l-1 1v0v1v0v0v0l-1 1v0q0 1 -1 2v0q0 1 -1 1v1v0v0v0v1h-1v0v1v0l-1 1v0v0
l-0.5 0.5l-0.5 0.5v0l-1 1v0q-1 1 -1 2h-1l-1 1v0l-1 1v0h-1v1h-1v0l-1 1v0h-0.5h-0.5l-0.5 0.5l-0.5 0.5h-0.5t-1 0.5t-1 0.5h-1h-0.5q0 1 -1 1v0l-249 82q-14 5 -26.5 -1.5t-17 -19.5t2 -26t19.5 -17l100 -33q-110 -24 -204 -82q-127 -79 -217 -216q-29 -43 -53 -90.5
t-37 -82.5t-23.5 -70t-13.5 -47.5t-4 -20.5v0zM406 95z" />
    <glyph glyph-name="x" unicode="&#xe691;" 
d="M302.5 90.5q-7.5 7.5 -7.5 18.5t8 19l381 381q8 8 19 8t18.5 -7.5t7.5 -18.5t-8 -19l-381 -381q-8 -8 -19 -8t-18.5 7.5zM302.5 509.5q7.5 7.5 18.5 7.5t19 -8l381 -381q8 -8 8 -19t-7.5 -18.5t-18.5 -7.5t-19 8l-381 381q-8 8 -8 19t7.5 18.5z" />
    <glyph glyph-name="gouxuan" unicode="&#xe612;" 
d="M512 769q75 0 139.5 -28.5t113 -77t76.5 -114t28 -139.5t-28 -139.5t-76.5 -114t-113.5 -77t-139 -28.5t-139 28.5t-113.5 77t-76.5 114t-28 140t28 139.5t76.5 113.5t113.5 77t139 28.5v0zM736 479q15 14 16 36t-14 36.5t-36 14t-36 -15.5l-229 -229l-79 78
q-15 15 -36 15.5t-36 -14.5t-15 -35t14 -34l113 -114q15 -15 38.5 -14.5t38.5 14.5l-3 -3zM736 479z" />
    <glyph glyph-name="naozhong3" unicode="&#xe665;" 
d="M643 328l-119 65v213q0 23 -17 23t-17 -23v-222q0 -9 7 -16.5t12 -10.5l115 -62q18 -10 27.5 6.5t-8.5 26.5zM512 829q-91 0 -174.5 -35.5t-143.5 -95t-96 -142t-36 -172.5t36 -172.5t96 -142t143.5 -95t174.5 -35.5t174.5 35.5t143.5 95t96 142t36 172.5t-36 172.5
t-96 142t-143.5 95t-174.5 35.5zM512 -26q-82 0 -158.5 33t-132.5 88.5t-90 131.5t-34 157t34 157t90 131.5t132.5 88.5t158.5 33t158.5 -33t132.5 -88.5t90 -131.5t34 -157t-34 -157t-90 -131.5t-132.5 -88.5t-158.5 -33z" />
    <glyph glyph-name="xiaoxi" unicode="&#xe663;" 
d="M511 798q-136 0 -251 -57.5t-181.5 -156t-66.5 -214.5q0 -97 50 -184.5t142 -149.5q13 -9 27.5 -6t22.5 15t5.5 26.5t-15.5 23.5q-77 52 -119 124t-42 151q0 97 57.5 179t156 130t214.5 48t214.5 -48t156 -130t57.5 -178.5t-57.5 -178.5t-156 -130t-214.5 -48
q-1 0 -3.5 -0.5l-2.5 -0.5q-13 2 -24.5 -4t-15.5 -19q-10 -28 -105 -82q19 65 4 88q-12 18 -34 18q-14 0 -24.5 -10.5t-10.5 -25.5q0 -9 5 -18q-7 -36 -37 -111q-9 -22 8 -39q10 -10 25 -10q7 0 14 3q32 14 64.5 31t78.5 49t66 60q134 2 247 59.5t178.5 155.5t65.5 212
q0 116 -67 214.5t-182 156t-250 57.5v0zM320 438q-27 0 -46 -19t-19 -45.5t19 -45.5t45.5 -19t45.5 19t19 45.5t-19 45.5t-45 19v0zM512 438q-27 0 -45.5 -19t-18.5 -45.5t18.5 -45.5t45 -19t45.5 19t19 45.5t-19 45.5t-45 19v0zM704 438q-26 0 -45 -19t-19 -45.5t19 -45.5
t45.5 -19t45 19t18.5 45.5t-18.5 45.5t-45.5 19v0z" />
    <glyph glyph-name="shouji1" unicode="&#xe648;" 
d="M744 -67h-464q-25 0 -43.5 18.5t-18.5 44.5v776q0 26 18.5 44.5t43.5 18.5h464q25 0 43.5 -18.5t18.5 -44.5v-776q0 -26 -18.5 -44.5t-43.5 -18.5zM280 804q-13 0 -22 -9.5t-9 -22.5v-776q0 -13 9 -22.5t22 -9.5h464q13 0 22 9.5t9 22.5v776q0 13 -9 22.5t-22 9.5h-464z
M512 1q-17 0 -29 12t-12 28.5t12 28.5t29 12t29 -12t12 -28.5t-12 -28.5t-29 -12zM512 52q-10 0 -10 -10q0 -6 5 -8t10 0t5 8q0 10 -10 10zM732 112h-443q-6 0 -10.5 4.5t-4.5 10.5v622q0 6 4.5 10.5t10.5 4.5h443q6 0 10.5 -4.5t4.5 -10.5v-622q0 -6 -4.5 -10.5t-10.5 -4.5
zM305 143h412v590h-412v-590z" />
    <glyph glyph-name="tishi" unicode="&#xe687;" 
d="M512 748q-91 0 -174 -35.5t-143 -95.5t-95.5 -143t-35.5 -174t35.5 -174t95.5 -143t143 -95.5t174 -35.5t174 35.5t143 95.5t95.5 143t35.5 174t-35.5 174t-95.5 143t-143 95.5t-174 35.5v0zM512 -88q-105 0 -194.5 52t-141.5 141.5t-52 194.5t52 194.5t141.5 141.5
t194.5 52t194.5 -52t141.5 -141.5t52 -194.5t-52 -194.5t-141.5 -141.5t-194.5 -52v0zM512 -88zM605 182q-4 0 -34 -31.5t-43 -31.5q-10 0 -10 10t14 42l55 144q15 36 9.5 56t-18.5 27.5t-32 7.5q-61 0 -116 -49q-9 -9 -22 -30.5t-13 -30.5q0 -4 3 -7.5t7 -3.5q6 0 17.5 18
t26 36.5t27.5 18.5q5 0 8 -5t0 -15l-55 -131q0 -2 -6.5 -14t-11.5 -23t-9 -26.5t-4 -27.5q0 -22 13.5 -40t33.5 -18q36 0 77.5 24t66.5 50.5t25 38.5q0 5 -3 8t-6 3v0zM589 543q-26 0 -45 -17.5t-19 -42.5q0 -22 14.5 -36t38.5 -14q27 0 46 17t19 42q0 23 -15 37t-39 14v0z
M589 543z" />
    <glyph glyph-name="wechaticon16" unicode="&#xe662;" 
d="M761 -67h-498q-42 0 -71.5 29.5t-29.5 71.5v400q0 42 27.5 71.5t66.5 29.5h64v-60h-64q-14 0 -24 -12t-10 -29v-400q0 -17 12 -29.5t29 -12.5h498q17 0 29 12.5t12 29.5v400q0 17 -10 29t-24 12h-64v60h64q39 0 66.5 -29.5t27.5 -71.5v-400q0 -42 -29.5 -71.5
t-71.5 -29.5zM681 353.5q-8 8.5 -20 9t-20 -7.5l-101 -92v412q0 11 -8 19.5t-20 8.5t-20 -8.5t-8 -19.5v-410l-96 90q-8 8 -20 7.5t-20 -9t-7.5 -20t8.5 -19.5l143 -136l1 -1l4 -2v-1l4 -2v0q1 0 4 -1h0.5h0.5q3 -1 6 -1t5 1h1.5h0.5q3 1 4 1l2 1t3 2l1 1q1 0 1.5 0.5
l0.5 0.5l148 136q9 8 9.5 20t-7.5 20.5z" />
    <glyph glyph-name="shezhi2" unicode="&#xe69e;" 
d="M976 384l-44 194l-117 13l-30 38l13 117l-179 86l-83 -83h-48l-83 83l-179 -86l13 -117l-30 -38l-117 -13l-44 -194l100 -62l11 -47l-63 -99l124 -156l111 39l43 -21l39 -111h199l38 111l43 21l112 -39l124 156l-63 99l10 47zM841 180l-61 -76l-91 32l-96 -46l-32 -92
h-98l-32 92l-96 46l-91 -32l-61 76l52 82l-24 104l-82 52l21 95l97 11l66 83l-11 96l88 43l69 -69h107l68 69l88 -43l-11 -96l67 -83l96 -11l22 -95l-83 -52l-23 -104zM512 558q-74 0 -126 -52.5t-52 -126t52 -126t126 -52.5t126 52.5t52 126t-52 126t-126 52.5v0zM512 268
q-46 0 -79 32.5t-33 78.5t33 79t79 33t79 -33t33 -79t-33 -78.5t-79 -32.5v0z" />
    <glyph glyph-name="vdengji" unicode="&#xe61c;" 
d="M88 810q-14 0 -20 -20t0 -40t20 -20h116v-741q1 -29 29.5 -28t54.5 28q35 35 590 570v1h60q13 0 18.5 20t0 40t-19.5 20h-294h-57q-16 0 -22 -20.5t0 -40.5t21 -20h101l-334 -319v571z" />
    <glyph glyph-name="zhifubao" unicode="&#xe65e;" 
d="M512 -127q-104 0 -199 40q-92 39 -162.5 110t-109.5 162q-40 95 -40 199.5t40 199.5q39 91 109.5 162t162.5 110q95 40 199 40t199 -40q92 -39 162.5 -110t109.5 -162q40 -95 40 -199t-40 -200q-39 -91 -109.5 -162t-162.5 -110q-95 -40 -199 -40v0zM512 861
q-97 0 -185 -37q-86 -37 -152 -102.5t-102 -151.5q-37 -89 -37 -185.5t37 -185.5q36 -85 102 -151t152 -102q88 -38 185 -38t185 38q86 36 152 102t102 151q37 89 37 186t-37 185q-36 86 -102 151.5t-152 102.5q-88 37 -185 37v0zM608 331q23 43 41.5 90t24.5 72l6 26h-178
v68h212v29h-212v101h-97v-101h-192v-29h192v-68h-164v-29h333q0 -3 -8 -26.5t-19.5 -54.5t-20.5 -49q-36 14 -69 24.5t-59 16.5t-50 9.5t-41.5 4.5t-34.5 -0.5t-27 -3.5t-21.5 -6t-16 -6t-11.5 -6t-8 -4q-46 -33 -63 -71.5t-9 -70.5t24.5 -59t35.5 -41.5t27 -13.5
q216 -48 361 126q5 -5 15 -5q24 -13 101 -50.5t142.5 -68.5l65.5 -31v145q-7 0 -16.5 1.5t-23.5 5t-27 7t-33 9.5t-34 10.5t-37.5 12.5t-36.5 12t-38 12.5t-34 11.5v0zM483 288q-34 -44 -74.5 -70t-72.5 -34t-65.5 -7t-49.5 5t-28 9q-21 6 -35 26t-16.5 44t9.5 48.5t37 36.5
q43 13 86.5 14.5t83.5 -8.5t69.5 -21t64.5 -29l-9 -14v0z" />
    <glyph glyph-name="jiantoushang" unicode="&#xe638;" 
d="M126 221l55 -56l332 330l329 -332l56 55l-384 387z" />
    <glyph glyph-name="renwu1" unicode="&#xe68c;" 
d="M853 625h-92v-152h-502v152h-91q-14 0 -24 -10.5t-10 -24.5v-703q0 -14 10 -24t24 -10h685q14 0 24 10t10 24v703q0 14 -10 24.5t-24 10.5zM777 331l-297 -364q1 -3 -2.5 -3.5t-7.5 2.5l-216 177q-8 7 -1 15l36 44q6 8 15 1l164 -135l254 311q6 10 14 3l42 -34
q8 -7 -1 -17zM639 669v27q0 22 -15 37t-36 15h-155q-21 0 -36 -15t-15 -37v-27h-60v-138h376v138h-59zM511 581q-23 0 -40 16.5t-17 40t17 40t40 16.5t39.5 -16.5t16.5 -39.5q0 -26 -16 -41.5t-40 -15.5z" />
    <glyph glyph-name="countdown" unicode="&#xe68b;" 
d="M194 678q-14 0 -24 10t-10 24.5t10 24t24 9.5h630q14 0 24 -9.5t10 -24t-10 -24.5t-24 -10h-28q-5 -154 -64 -256v-1q-49 -85 -134 -127q84 -41 134 -126v-2q56 -96 63 -242h29q14 0 24 -10t10 -24t-10 -24t-24 -10h-630q-14 0 -24 10t-10 24t10 24t24 10h29
q7 146 63 242v2q50 85 134 126q-84 42 -134 127v1q-58 100 -64 256h-28v0zM750 -76v0q-29 104 -115 154q-58 33 -126 33t-126 -33q-85 -50 -115 -154h482v0zM280 40v0q35 45 83 73q68 39 146 39t146 -39q48 -27 83 -73q-15 62 -41 106l-1 1q-55 95 -159 128l-3 1h-1
q-2 1 -3 2h-1l-1 1v1l-2 1v1q-1 1 -2 3v1q-1 3 -2 5v0v2v1v1v1v1v1q1 2 2 5v0l2 4v0l2 2v0l1 1l1 1q1 0 2 0.5t1 1.5h1l3 1q104 32 159 128h1q53 92 58 236h-492q6 -144 58 -236h1q56 -97 160 -128l2 -1h1q2 -2 3 -2l1 -1l1 -1v0l2 -2v0q0 -1 2 -4v0q2 -2 2 -5v-1v-1v-1v-1
v-1v-2v0q0 -3 -2 -5v-1l-0.5 -1.5t-1.5 -1.5v-1l-2 -1v-1l-1 -1h-1q-1 -1 -3 -2h-1l-2 -1q-105 -33 -160 -128l-1 -1q-26 -46 -41 -106v0zM330 505v0q23 -61 64 -101q40 -39 98 -57v0l1 -1l5 -2h2q2 -1 3 -2h1q8 -2 15 2v0l6 2l1 1v0q58 17 98 57v0q42 41 64 101q3 8 0 15.5
t-11 10.5t-16 -0.5t-11 -11.5q-21 -52 -55 -85t-81 -48l-1 -1h-2l-2 -1l-2 1h-1l-2 1q-48 15 -81 48q-34 33 -55 85q-3 8 -11 11.5t-15 0.5q-8 -3 -11.5 -10.5t-0.5 -15.5v0zM513 385v0v0v0v0z" />
    <glyph glyph-name="zuihouyibanfenxiang" unicode="&#xe64d;" 
d="M1 535q0 6 3.5 19t3.5 19q14 39 46 61t75 22h255q15 0 23.5 -8.5t8.5 -23.5v0q0 -14 -8.5 -23t-23.5 -9h-249h-25q-19 -4 -32 -21t-13 -36v-128v-491q0 -45 38 -64h26h740q30 0 50.5 19t20.5 51v351q0 15 8.5 23.5t23.5 8.5v0q14 0 23 -8.5t9 -23.5v-351q0 -48 -30.5 -83
t-78.5 -45h-26q-248 -6 -740 -6q-53 0 -88 31t-40 84v6v626v0zM704 369q-143 0 -237 -77q-52 -43 -82.5 -93t-44.5 -117q-24 47 -32.5 106.5t6.5 131t58 132.5q61 84 142.5 125.5t189.5 46.5v13v147q0 13 12 25q17 9 32 -6q23 -22 67.5 -70t66.5 -70q51 -52 128 -141
q13 -13 13 -25q0 -20 -7 -26q-44 -48 -130.5 -140.5t-130.5 -140.5q-10 -9 -22 -9t-17 9q-12 7 -12 19v147v13v0zM359 267v0q2 2 5.5 4t5.5 4t2 5q72 72 153 108q4 2 19 8l22.5 9t20.5 7t24 6t22 2h122h6v-140q32 35 99 108t99 109q-35 35 -102 108t-102 109v-7v-121
q0 -5 -1 -5.5t-6 -0.5h-51q-108 0 -185 -52q-116 -87 -153 -217v-44v0zM359 267z" />
    <glyph glyph-name="riqi" unicode="&#xe63a;" 
d="M841 654h-126v75q0 7 -5 12.5t-13 5.5h-10q-7 0 -12 -5.5t-5 -12.5v-75h-136v75q0 7 -5 12.5t-13 5.5h-10q-7 0 -12 -5.5t-5 -12.5v-75h-136v75q0 7 -5 12.5t-13 5.5h-10q-7 0 -12 -5.5t-5 -12.5v-75h-127q-22 0 -38 -16t-16 -39v-523q0 -23 16 -39t38 -16h660
q23 0 39 16t16 39v523q0 23 -16 39t-39 16zM851 66h-679v543h136v-74q0 -7 5 -12.5t12 -5.5h10q8 0 13 5.5t5 12.5v74h136v-74q0 -7 5 -12t12 -5h10q8 0 13 5t5 12v74h136v-74q0 -7 5 -12t12 -5h10q8 0 13 5t5 12v74h136v-543zM263 383h136v92h-136v-92zM444 383h136v92
h-136v-92zM625 383h136v92h-136v-92zM263 248h136v91h-136v-91zM444 248h136v91h-136v-91zM625 248h136v91h-136v-91zM263 112h136v91h-136v-91zM444 112h136v91h-136v-91zM625 112h136v91h-136v-91z" />
    <glyph glyph-name="xiala" unicode="&#xe601;" 
d="M800 559l36 -35l-324 -315v1v-1l-324 315l36 35l288 -280z" />
    <glyph glyph-name="weixin" unicode="&#xe64b;" 
d="M432 705q47 -6 79 -12.5t73 -19.5t70.5 -31t59 -47.5t50.5 -69.5q29 -51 24 -107t-32 -105t-72.5 -86t-97.5 -50q-4 -1 -12 -4q-39 -10 -60.5 -15t-55.5 -8.5t-62 -0.5q-25 2 -56 -24q-46 -37 -80 -53q-3 -1 -14 -7t-17.5 -8t-15.5 -5t-16 -1.5t-13 5.5q-6 5 -9 11.5
t-3.5 11.5t3 13t5.5 12.5t7.5 14t6.5 11.5q28 51 -21 90q-66 52 -93.5 118.5t-7.5 141.5q22 79 79.5 130t143.5 70q11 3 41 12t52 12.5t44 0.5zM427 648q-59 10 -152 -27q-132 -53 -153 -162q-23 -125 94 -207q17 -11 25.5 -19t15 -23t3.5 -34q-3 -25 10.5 -27.5t27.5 13.5
q47 51 139 41q72 -7 153 33q65 32 102.5 75.5t41.5 109.5q7 120 -125 188q-101 52 -182 39zM400 84q28 9 56.5 2t47.5 -19t45 -22.5t49 -9.5q2 0 20 1.5t22.5 1.5h20.5t22 -2t20 -4.5t22 -8t19 -12.5t20.5 -17.5t18.5 -23.5q-2 27 2 47t15.5 36t21.5 25t29 23q47 35 51.5 94
t-34.5 108q-2 3 -6.5 8.5t-6.5 8.5t-5.5 8t-4 8.5t-1 8t2 8.5t6.5 8q7 6 13.5 7t13 -2.5t10.5 -7.5t10.5 -11.5t8.5 -10.5q34 -34 44.5 -85.5t-6.5 -102t-57 -81.5q-34 -27 -43.5 -57.5t0.5 -66.5q1 -4 4 -11.5t4 -12t-1.5 -10t-10.5 -8.5q-10 -5 -25.5 -4.5t-20.5 6.5
q-27 31 -66 49.5t-73 24t-80 13.5t-76 18q-64 23 -102 76z" />
    <glyph glyph-name="qq" unicode="&#xe624;" 
d="M512 896q-139 0 -257 -68.5t-186.5 -186.5t-68.5 -257t68.5 -257t186.5 -186.5t257 -68.5t257 68.5t186.5 186.5t68.5 257t-68.5 257t-186.5 186.5t-257 68.5v0zM739 259q-16 -44 -46 -84q2 -1 5.5 -2.5t12.5 -7t15.5 -12.5t11.5 -18.5t4 -24.5q0 -2 -1 -5.5t-6.5 -12.5
t-16.5 -15.5t-34.5 -11.5t-55.5 -4q-9 1 -23 3t-42.5 12.5t-39.5 25.5h-22q-11 -15 -37 -25.5t-47 -12.5l-21 -3q-32 -1 -55.5 4t-34.5 11.5t-17 15.5t-6.5 12.5t-0.5 5.5q-2 21 10.5 37t25.5 22l13 6q-13 18 -24.5 39t-16.5 33l-5 12q-15 -24 -26.5 -36t-18 -12t-11 5.5
t-6.5 15.5t-2.5 19.5t-0.5 16.5v7q6 35 24 67.5t31.5 47.5t15.5 15q-4 32 1.5 53t12.5 26l7 5q1 45 13 81.5t28.5 58.5t39 38t41 23t38.5 11t27.5 4.5t12.5 0.5t12.5 -0.5t27.5 -4.5t38.5 -11t41 -23t39 -38t28.5 -58.5t13 -81.5q1 0 3 -1.5t7 -7.5t7.5 -14.5t5 -24
t-1.5 -36.5q7 -6 16.5 -16.5t29 -44.5t25.5 -69v0v0v-4.5v-10.5t-1 -15t-3 -15t-4.5 -12.5t-7.5 -6t-11.5 2.5t-16.5 15t-21 30v0zM739 259z" />
    <glyph glyph-name="yanzhengma" unicode="&#xe649;" 
d="M831 86h-46v-69q-1 -7 -6.5 -13t-11.5 -8l-5 -2h-575q-7 1 -12.5 6.5t-7.5 11.5l-3 5v736q-1 7 5 13t12 8l6 2h575q8 0 14 -6t7 -12l2 -5v-299h46v345q-2 9 -8 15t-10 7l-5 1h-667q-8 -1 -13.5 -6.5t-7.5 -11.5l-2 -5v-828q2 -16 23 -23v0h667q11 3 16.5 8.5t6.5 10.5v4
v115zM716 454v69h-483v-69h483zM854 408l-207 -207l-92 115q-23 7 -35 5t-15 -10t-2 -17t3 -17l3 -7l92 -115q12 -14 26 -19t25 -2.5t20.5 7t15.5 9.5l5 5l207 207q4 21 1.5 32.5t-10.5 15t-16 3t-15 -2.5z" />
    <glyph glyph-name="jiahao" unicode="&#xe63f;" 
d="M1002 406h-468v468q0 9 -6.5 15.5t-15.5 6.5t-15.5 -6.5t-6.5 -15.5v-468h-468q-9 0 -15.5 -6.5t-6.5 -15.5t6.5 -15.5t15.5 -6.5h468v-468q0 -9 6.5 -15.5t15.5 -6.5t15.5 6.5t6.5 15.5v468h468q9 0 15.5 6.5t6.5 15.5t-6.5 15.5t-15.5 6.5z" />
    <glyph glyph-name="weibo" unicode="&#xe625;" 
d="M411.5 288.5q-13.5 5.5 -29 0.5t-23.5 -18t-4.5 -26.5t16.5 -19.5q13 -7 29 -1.5t24 19t4.5 27t-17 19zM456 307q-13 4 -20 -8t5 -17q13 -5 20 7q3 6 1.5 11t-6.5 7zM428 426.5q-87 -8.5 -145 -54.5t-52 -103t71.5 -91.5t152.5 -26t144.5 55t52 103.5t-71 91t-152.5 25.5
zM529 248q-17 -40 -61.5 -58.5t-87.5 -5.5q-42 14 -58 50t3 73q18 36 59 54t82 7q43 -11 62 -46t1 -74zM512 896q-139 0 -257 -68.5t-186.5 -186.5t-68.5 -257t68.5 -257t186.5 -186.5t257 -68.5t257 68.5t186.5 186.5t68.5 257t-68.5 257t-186.5 186.5t-257 68.5zM456 101
q-75 0 -141 22t-109.5 65t-43.5 99q0 92 104 196q66 66 133.5 92t96.5 -3q25 -25 8 -81q-4 -12 6 -11t10 3q55 22 97 22.5t60 -23.5q17 -25 -1 -70q-3 -9 0 -12t12 -6q35 -11 60 -35t25 -60q0 -33 -23.5 -68t-63.5 -64t-101 -47.5t-129 -18.5zM719 468q8 24 -9.5 43
t-42.5 14v0q-9 -2 -17 3t-10 14.5t3 17.5t15 10q51 11 86 -27.5t19 -88.5q-3 -9 -11.5 -13.5t-18 -1.5t-13.5 11.5t-1 17.5v0v0zM853 425v0q-3 -11 -13 -16t-20.5 -1.5t-15.5 13.5t-2 20v0q11 32 4 67t-31.5 61.5t-58 37.5t-67.5 3q-11 -2 -20 4t-11.5 17t3.5 20t17 12v0
q48 10 95.5 -5t81 -52.5t44 -86.5t-5.5 -94z" />
    <glyph glyph-name="iconfontzhifushibai" unicode="&#xe619;" 
d="M480 162h63v315h-63v-315zM511.5 -78q91.5 0 174.5 35.5t143 95.5t95.5 143t35.5 174t-35.5 174t-95.5 143t-143 95.5t-174.5 35.5t-174.5 -35.5t-143 -95.5t-95.5 -143t-35.5 -174t35.5 -174t95.5 -143t143 -95.5t174.5 -35.5zM511.5 781q111.5 0 206 -55t149.5 -149.5
t55 -206.5t-55 -206.5t-149.5 -149.5t-206 -55t-206 55t-149.5 149.5t-55 206.5t55 206.5t149.5 149.5t206 55zM511.5 528q18.5 0 31.5 13t13 31t-13 31t-31.5 13t-31.5 -13t-13 -31t13 -31t31.5 -13z" />
    <glyph glyph-name="shanchuanniu" unicode="&#xe64e;" 
d="M510 749q-91 0 -174 -35.5t-143 -96t-95.5 -143.5t-35.5 -174t35.5 -174t95.5 -143t143 -95.5t174 -35.5t174 35.5t143 95.5t95.5 143t35.5 174t-35.5 174t-95.5 143.5t-143 96t-174 35.5zM712 179l-81 -81l-121 122l-121 -122l-81 81l121 121l-121 121l81 81l121 -121
l121 121l81 -81l-121 -121z" />
    <glyph glyph-name="touxiang1" unicode="&#xe68d;" 
d="M512 812q-139 0 -257 -68.5t-186.5 -186.5t-68.5 -257t68.5 -257t186.5 -186.5t257 -68.5t257 68.5t186.5 186.5t68.5 257t-68.5 257t-186.5 186.5t-257 68.5zM776 -61q-25 2 -48.5 8t-50 19t-42.5 38.5t-16 60.5q0 11 -3 25.5t-3 23.5t6 15q12 14 24.5 45.5t17.5 61.5
q1 6 12 13.5t21 20t10 30.5q7 7 8 18.5t-1 22t-4.5 23.5t-2.5 21q3 45 0 94t-21 77q-42 62 -106 84.5t-128.5 0t-107.5 -84.5q-6 -9 -10.5 -22t-6.5 -24t-3 -30t-1.5 -29t0 -33.5t0.5 -32t-3 -21.5t-5.5 -23t-1 -21.5t9.5 -19.5q0 -14 6 -24.5t13.5 -15t14.5 -11t9 -13.5
q19 -83 42 -107q10 -9 10 -18t-5 -22t-5 -24q0 -28 -11.5 -50.5t-28 -35.5t-39 -22t-41 -13t-37.5 -5q-85 62 -134.5 157t-49.5 204q0 122 60 225t163 163t225 60t225 -60t163 -163t60 -225q0 -109 -49.5 -204t-134.5 -157z" />
    <glyph glyph-name="iconsvgtixianjilu" unicode="&#xe627;" 
d="M678 451q-97 0 -165.5 -68.5t-68.5 -165.5t68.5 -165.5t165.5 -68.5t165.5 68.5t68.5 165.5t-68.5 165.5t-165.5 68.5zM678.5 37q-74.5 0 -127.5 52.5t-53 127t53 127.5t127.5 53t127 -53t52.5 -127.5t-52.5 -127t-127 -52.5zM245 238v-40h157q-1 11 -1 19q0 9 1 21h-157
zM446 65h-255q-11 0 -18.5 8t-7.5 19v613q0 11 7.5 19t18.5 8h561q11 0 19 -8t8 -19v-230q28 -11 52 -27v278q0 25 -17 42t-42 17h-601q-25 0 -42 -17t-17 -42v-656q0 -24 17 -41.5t42 -17.5h322q-27 24 -47 54zM698 598h-453v-40h453v40zM487 418h-242v-40h208q15 21 34 40
zM732 329l-54 -73v0l-54 73h-35l54 -73h-54v-30h74v-30h-74v-31h74v-82h30v82h75v31h-75v30h75v30h-54l54 73h-36z" />
    <glyph glyph-name="woDeYaoQingMa" unicode="&#xe64a;" 
d="M608 313h-99h-197h-142h-10l25 -25v99v197v142v10l-25 -25h99h197h142h10l-25 25v-99v-197v-142v-10q0 -10 7.5 -17.5t17.5 -7.5t17.5 7.5t7.5 17.5v99v197v142v10q0 10 -7.5 17t-17.5 7h-99h-197h-142h-10q-10 0 -17 -7t-7 -17v-99v-197v-142v-10q0 -10 7 -17.5t17 -7.5
h99h197h142h10q10 0 17.5 7.5t7.5 17.5t-7.5 17.5t-17.5 7.5zM480 441h-153h-39l25 -25v153v39l-25 -25h153h39l-25 25v-153v-39q0 -10 7.5 -17.5t17.5 -7.5t17.5 7.5t7.5 17.5v153v39q0 10 -7.5 17t-17.5 7h-153h-39q-10 0 -17 -7t-7 -17v-153v-39q0 -10 7 -17.5t17 -7.5
h153h39q10 0 17.5 7.5t7.5 17.5t-7.5 17.5t-17.5 7.5zM711 736v-64q0 -10 7.5 -17.5t17.5 -7.5t17 7.5t7 17.5v64q0 10 -7 17t-17 7t-17.5 -7t-7.5 -17v0zM711 544v-140v-116q0 -10 7.5 -17t17.5 -7t17 7t7 17v140v116q0 10 -7 17t-17 7t-17.5 -7t-7.5 -17v0zM888 288v64
q0 10 -7 17.5t-17 7.5t-17.5 -7.5t-7.5 -17.5v-64q0 -10 7.5 -17.5t17.5 -7.5t17 7.5t7 17.5v0zM888 480v140v116q0 10 -7 17t-17 7t-17.5 -7t-7.5 -17v-140v-116q0 -10 7.5 -17.5t17.5 -7.5t17 7.5t7 17.5v0zM608 185h-64q-10 0 -17.5 -7.5t-7.5 -17.5t7.5 -17t17.5 -7h64
q10 0 17.5 7t7.5 17t-7.5 17.5t-17.5 7.5v0zM416 185h-140h-116q-10 0 -17 -7.5t-7 -17.5t7 -17t17 -7h140h116q10 0 17.5 7t7.5 17t-7.5 17.5t-17.5 7.5v0zM160 8h64q10 0 17.5 7t7.5 17t-7.5 17.5t-17.5 7.5h-64q-10 0 -17 -7.5t-7 -17.5t7 -17t17 -7v0zM352 8h140h116
q10 0 17 7t7 17t-7 17.5t-17 7.5h-140h-116q-10 0 -17 -7.5t-7 -17.5t7 -17t17 -7v0zM864 57h-128l24 -25v128l-24 -24h128l-25 24v-128q0 -10 7.5 -17t17.5 -7t17 7t7 17v128q0 10 -7 17.5t-17 7.5h-128q-10 0 -17.5 -7.5t-7.5 -17.5v-128q0 -10 7.5 -17t17.5 -7h128
q10 0 17 7t7 17t-7 17.5t-17 7.5z" />
    <glyph glyph-name="yanzhengma1" unicode="&#xe60b;" 
d="M896 -17h-768q-24 0 -42.5 28t-18.5 56v656q0 25 18 43.5t43 18.5h768q25 0 43 -18.5t18 -43.5v-656q0 -28 -18.5 -56t-42.5 -28v0zM128 751q-11 0 -19.5 -8t-8.5 -20v-656q0 -14 9 -32t19 -18h768q10 0 19 18t9 32v656q0 12 -8.5 20t-19.5 8h-768v0zM292 490
q-35 0 -59.5 24.5t-24.5 59t24.5 59t59.5 24.5t59.5 -24.5t24.5 -59t-24.5 -59t-59.5 -24.5v0zM292 624q-21 0 -35.5 -15t-14.5 -35.5t14.5 -35.5t35.5 -15t35.5 15t14.5 35.5t-14.5 35.5t-35.5 15v0zM151 207q-9 0 -14 6q-4 6 -3 13t7 11l186 134q11 9 22 -2l77 -77
l212 211q5 5 12 5t12 -5l223 -223q5 -5 5 -12t-5 -12t-12 -5t-11 5l-212 212l-212 -212q-5 -5 -12 -5t-12 5l-79 79l-167 -125q-5 -3 -17 -3v0zM873 184h-313q-7 0 -11.5 5t-4.5 12t4.5 12t11.5 5h313q7 0 12 -5t5 -12t-5 -12t-12 -5v0zM873 87h-492q-6 0 -11 5t-5 12t5 12
t11 5h492q7 0 12 -5t5 -12t-5 -12t-12 -5v0zM873 87z" />
    <glyph glyph-name="cardid" unicode="&#xe65f;" 
d="M861 768h-698q-48 0 -82 -34.5t-34 -82.5v-558q0 -48 34 -82.5t82 -34.5h698q48 0 82 34.5t34 82.5v558q0 48 -34 82.5t-82 34.5zM931 93q0 -29 -20.5 -49.5t-49.5 -20.5h-698q-29 0 -49.5 20.5t-20.5 49.5v558q0 29 20.5 49.5t49.5 20.5h698q29 0 49.5 -20.5t20.5 -49.5
v-558zM186 186h256v46h-256v-46zM186 349h256v46h-256v-46zM186 512h256v46h-256v-46zM749 353q42 35 42 89q0 48 -34 82t-82 34t-82 -34t-34 -82q0 -54 41 -89q-40 -21 -64 -59.5t-24 -84.5q0 -10 7 -16.5t16.5 -6.5t16.5 6.5t7 16.5q0 48 34 82t82 34t82 -34t34 -82
q0 -10 7 -16.5t16.5 -6.5t16.5 6.5t7 16.5q0 46 -24.5 84.5t-64.5 59.5zM675 372q-29 0 -49.5 20.5t-20.5 49.5t20.5 49.5t49.5 20.5t49.5 -20.5t20.5 -49.5t-20.5 -49.5t-49.5 -20.5z" />
    <glyph glyph-name="0082" unicode="&#xe620;" horiz-adv-x="1156" 
d="M499 292h-132v-53h132v-131h52v131h131v53h-131v79h-52v-79zM577 423h105v-52h-315v52h106v0l-123 198h56l119 -196l118 196h56l-122 -198v0zM968 304q-4 61 -4 64q5 189 -128 322q-86 86 -200 116.5t-228 -0.5t-200 -117t-115.5 -198.5t2.5 -224.5t118.5 -198.5
t198.5 -118.5t224.5 -3t198.5 115l39 -39q-95 -95 -224 -129t-257.5 0t-223.5 129q-72 72 -109 165.5t-37 188t37 188t108.5 164.5t165 108.5t188 37.5t188 -37.5t164.5 -108.5q73 -73 110.5 -167t34.5 -196q0 -27 -2 -69l107 107l31 -32l-122 -123q-15 -15 -37 -15t-37 15
l-122 123l32 32l99 -99v0z" />
    <glyph glyph-name="iconfontkongwujiaoxing" unicode="&#xe62b;" 
d="M232 -41l99 316l-254 217h320l115 294l129 -294h306l-240 -217l103 -317l-296 199zM513 196l239 -159l-81 247l196 177h-247l-106 242l-95 -242h-258l207 -176l-79 -249z" />
    <glyph glyph-name="iconfontshiwujiaoxing" unicode="&#xe62d;" 
d="M232 -41l99 316l-254 217h320l115 294l129 -294h306l-240 -217l103 -317l-296 199z" />
    <glyph glyph-name="guanyu" unicode="&#xe645;" 
d="M512 896q-104 0 -199 -40.5t-163.5 -109t-109 -163.5t-40.5 -199t40.5 -199t109 -163.5t163.5 -109t199 -40.5t199 40.5t163.5 109t109 163.5t40.5 199t-40.5 199t-109 163.5t-163.5 109t-199 40.5v0zM512 -68q-92 0 -175.5 36t-144 96.5t-96.5 144t-36 175.5t36 175.5
t96.5 144t144 96.5t175.5 36t175.5 -36t144 -96.5t96.5 -144t36 -175.5t-36 -175.5t-96.5 -144t-144 -96.5t-175.5 -36v0zM512 474q-12 0 -21 -8.5t-9 -21.5v-346q0 -13 9 -21.5t21 -8.5t21 8.5t9 21.5v346q0 13 -9 21.5t-21 8.5v0zM452 625q0 25 17.5 42.5t42.5 17.5
t42.5 -17.5t17.5 -42.5t-17.5 -42.5t-42.5 -17.5t-42.5 17.5t-17.5 42.5v0zM452 625z" />
    <glyph glyph-name="zhenshixingming" unicode="&#xe65c;" 
d="M707 -32q-106 0 -180 74t-74 180q0 27 5 54q-17 -3 -34 -3q-31 0 -69.5 9.5t-63.5 20.5q-78 -31 -128.5 -101t-57.5 -156v-5h-1v-1v0q0 -25 -18.5 -25t-18.5 25v1v0v0v0v5q6 91 56 168.5t131 120.5q-45 37 -69.5 89t-24.5 110q0 108 77.5 184.5t186.5 76.5t186 -76.5
t77 -184.5q0 -29 -6 -58q13 1 26 1q106 0 180.5 -74t74.5 -180.5t-74.5 -180.5t-180.5 -74zM424 754q-87 0 -155 -67t-68 -153t68 -153t155 -67q24 0 48 6q22 53 64.5 91.5t97.5 54.5q12 34 12 68q0 86 -67.5 153t-154.5 67zM707 430q-22 0 -44 -5q-40 -9 -75 -33
q-20 -15 -37 -34q-27 -31 -40 -70q-11 -32 -11 -66q0 -84 61 -145.5t146 -61.5t146 61.5t61 146t-61 146t-146 61.5zM688 90l-108 109l33 33l75 -71l146 146l38 -33z" />
    <glyph glyph-name="qq-copy" unicode="&#xe60c;" horiz-adv-x="1025" 
d="M517 861q-97 0 -185 -37.5t-152 -101.5t-101.5 -152t-37.5 -185t37.5 -185t101.5 -151.5t152 -101.5t185 -38t185 38t152 101.5t101.5 151.5t37.5 185t-37.5 185t-101.5 152t-152 101.5t-185 37.5zM517 -64q-91 0 -174.5 35.5t-143.5 95.5t-95.5 143.5t-35.5 175
t35.5 174.5t95.5 143t143.5 96t174.5 36t174.5 -36t143.5 -96t95.5 -143t35.5 -174.5t-35.5 -175t-95.5 -143.5t-143.5 -95.5t-174.5 -35.5zM767 327l-2 9l-1 5l-1 4l-2 5l-2 5l-2 6l-2 5l-4 8l-4 8l-3 6l-3 6l-4 6l-2 4l-5 8l-7 10l-2 3l-1 1v1l2 3l1 3l1 6l1 4v3l1 2v3
l-1 3l-1 3v4l-1 5l-2 5l-2 4l-2 3l-1 4l-2 3l-4 5v2l-1 1l-1 9l-1 6l-1 8l-1 7l-3 9l-1 5l-1 4l-2 5l-2 5l-1 5l-2 6l-5 9l-2 5l-4 5l-2 5l-3 5l-4 6l-4 4l-4 5l-5 5l-4 4l-5 4l-3 2l-2 2l-6 4l-6 4l-7 4l-7 3l-7 3l-7 3l-8 3l-8 2l-7 2l-8 1l-8 2l-7 1l-9 1l-7 1h-8h-8h-7
h-8l-8 -2h-7l-8 -1l-7 -2l-7 -1l-7 -3l-7 -2l-6 -2l-7 -3l-5 -3l-6 -3l-6 -4l-5 -3l-6 -4l-4 -4l-7 -6l-5 -5l-6 -6l-4 -6l-5 -6l-4 -5l-4 -6l-2 -3l-2 -3l-3 -5l-3 -5l-2 -5l-3 -6l-2 -4l-2 -5l-2 -5l-1 -4l-2 -8l-2 -9l-1 -6l-1 -6v-4v-3v-4l-1 -2l-2 -1l-1 -3l-1 -2
l-2 -5l-1 -4v-4v-3v-3l-4 -4l-2 -5l-2 -4l-1 -4l-1 -4l-1 -3v-3v-4v-2l1 -2l1 -4l1 -3l-2 -1l-5 -4l-6 -6l-4 -3l-4 -4l-3 -2l-2 -2l-5 -6l-4 -4l-4 -5l-4 -6l-4 -6l-4 -6l-4 -5l-3 -7l-2 -5l-2 -6l-3 -6l-1 -5l-2 -6l-2 -5v-6l-1 -5l-1 -5l-1 -9v-9v-4l1 -4v-6l1 -4l1 -3
l1 -3v-1l3 -4v-1l1 -1h2l1 -1h1l2 1l4 1l4 1l3 3l3 2l4 2l3 3l2 3l3 3l2 3l2 3l1 2l3 5l1 2v1l1 1v2h1h1v0v0h1v0l1 -7l2 -5l3 -5l2 -5l2 -5l2 -4l2 -4l3 -4l2 -4l2 -3l6 -7l4 -5l5 -5l4 -4l4 -3l6 -1l2 -2h1v-1h-1l-1 -1l-4 -1h-4h-4l-3 -1l-4 -1l-3 -1l-2 -1l-2 -1l-3 -1
l-2 -2l-1 -1l-2 -1l-3 -3l-1 -2l-1 -1l-1 -3l-1 -3l-1 -2l-1 -2v-3v-1v-3v-2v-2v-2v-3v-1l2 -3l1 -2v-2l2 -2l1 -1l2 -2l1 -1l4 -2l4 -3l4 -3l6 -1l5 -2l5 -2l6 -2l6 -1h6l6 -2l7 -1l13 -1h13h12h6h6h5l5 1h5h4l7 2l5 1l5 1l9 4l4 2l4 1l7 4l5 3l5 3l3 2h5l3 -1h8h3h3l2 -1
h3l4 -2l3 -1l9 -3l7 -2l8 -2l8 -2l8 -2l8 -1l8 -1l8 -1l7 -1h8h8h7h7l7 1h7l7 1l6 1l6 2l6 1l2 1l3 1l5 2l4 2l5 2l4 2l3 2l2 2l1 2l3 2l1 3l2 2v1l1 2v2v2l1 1l-1 3v2l-1 2l-1 3l-1 3l-2 1l-2 3l-2 2l-5 4l-5 4l-5 3l-6 3l-13 6l-2 1l4 5l3 3l2 3l4 5l4 7l4 6l3 5l4 10l4 9
l2 6l1 2l1 2l1 1h1v0l3 -7l3 -6l3 -3l2 -4l2 -3l3 -4l2 -2l1 -1l1 -2h2l1 -2l2 -1h2h1h1h2l1 1l2 1l2 1l1 2l2 2l1 1l1 3l2 2l1 2l1 3l1 6l2 7l1 7v4v3v4v4l-1 8zM681 225l-1 1l1 1v-2z" />
    <glyph glyph-name="weixin-dis" unicode="&#xe626;" horiz-adv-x="1025" 
d="M320 588q-15 0 -27 -9.5t-12 -23.5t12 -23.5t27 -9.5t24 9t9 24t-9 24t-24 9zM502 522q15 0 24 9t9 24t-9 24t-24 9t-27 -9.5t-12 -23.5t12 -23.5t27 -9.5zM512 896q-139 0 -257 -68.5t-186.5 -186.5t-68.5 -257t68.5 -257t186.5 -186.5t257 -68.5q104 0 199 40.5
t163.5 109t109 163.5t40.5 199t-40.5 199t-109 163.5t-163.5 109t-199 40.5zM405 252q-26 0 -91 13l-91 -46l26 79q-104 74 -104 178q0 93 76 158.5t184 65.5q96 0 170.5 -53t91.5 -132q-14 1 -25 1q-92 0 -156.5 -60.5t-64.5 -147.5q0 -27 8 -55q-12 -1 -24 -1zM788 160
l20 -66l-72 39q-52 -13 -78 -13q-92 0 -156.5 56t-64.5 135t64.5 135t156.5 56q89 0 155 -56.5t66 -134.5q0 -82 -91 -151zM730 397q-10 0 -18 -8.5t-8 -18t8 -18t18 -8.5q14 0 23 8t9 18.5t-9 18.5t-23 8zM587 397q-10 0 -18 -8.5t-8 -18t8 -18t18 -8.5q14 0 23 8t9 18.5
t-9 18.5t-23 8z" />
    <glyph glyph-name="fenxiang2" unicode="&#xe661;" 
d="M101 -27l-20 66q-19 63 -19 131q0 121 58 223.5t157.5 162.5t216.5 60q14 0 38 -1v143q0 21 10 32t25 11t30 -12l344 -275q21 -16 21 -41t-21 -42l-344 -275q-15 -12 -30 -12t-25 11t-10 32v136q-24 1 -38 1q-129 0 -232 -79t-141 -206zM494 575q-106 0 -196 -54.5
t-142.5 -147.5t-52.5 -203q0 -27 4 -54q54 114 158 181t229 67q25 0 59 -1l19 -1v-173l343 274q6 5 6 10t-6 9l-343 275v-184h-21q-33 2 -57 2z" />
    <glyph glyph-name="xiaoxi1" unicode="&#xe664;" 
d="M512 896q-104 0 -199 -35t-163.5 -93.5t-109 -139.5t-40.5 -170q0 -109 58.5 -204t162.5 -157v-204q0 -13 12 -19q4 -2 9 -2q8 0 14 5l181 147q40 -5 75 -5q104 0 199 35t163.5 93.5t109 140t40.5 170.5t-40.5 170t-109 139.5t-163.5 93.5t-199 35zM512 62q-36 0 -78 6
q-9 1 -17 -5l-153 -125v171q0 13 -11 19q-99 55 -154.5 142.5t-55.5 187.5q0 107 63 198t171 144t235 53t235.5 -53t171 -144t62.5 -198.5t-62.5 -198.5t-171 -144t-235.5 -53zM512 458zM463 457.5q0 20.5 14.5 35t34.5 14.5t34.5 -14.5t14.5 -35t-14.5 -34.5t-34.5 -14
t-34.5 14t-14.5 34.5zM267 458zM218 457.5q0 20.5 14 35t34.5 14.5t35 -14.5t14.5 -35t-14.5 -34.5t-35 -14t-34.5 14t-14 34.5zM757.5 507q-20.5 0 -35 -14.5t-14.5 -35t14.5 -34.5t35 -14t34.5 14t14 34.5t-14 35t-34.5 14.5z" />
    <glyph glyph-name="duihao" unicode="&#xe60d;" 
d="M417 98q-26 0 -45 18l-253 254q-18 19 -18 45t18.5 45t44.5 19t45 -19l208 -209l397 399q19 19 45 19t44.5 -18.5t18.5 -45t-18 -44.5l-442 -445q-19 -18 -45 -18z" />
    <glyph glyph-name="renwu2" unicode="&#xe617;" 
d="M883 753h-709q-33 0 -56 -23t-23 -55v-276h1q5 -113 64 -208t156.5 -150t212 -55t212 55t156 150t63.5 208h1v276q0 32 -23 55t-55 23zM913 422l-1 -21q-3 -75 -34 -143q-31 -67 -84 -117q-54 -52 -122.5 -79.5t-143 -27.5t-143.5 27.5t-123 79.5q-52 50 -83 117
q-31 68 -35 143l-1 21v253q0 12 9 21t22 9h709q12 0 21 -9t9 -21v-253zM779 570l-279 -288l-172 158q-6 7 -16 7t-17 -7t-7 -16.5t7 -16.5l189 -173q7 -7 17 -7t17 7l294 303q7 7 7 16.5t-7 16.5t-17 7t-16 -7z" />
    <glyph glyph-name="x1" unicode="&#xe629;" 
d="M511.5 833q-91.5 0 -174.5 -35.5t-143.5 -96t-96 -143.5t-35.5 -174.5t35.5 -175t96 -143.5t143.5 -95.5t174.5 -35.5t175 35.5t143.5 95.5t95.5 143.5t35.5 175t-35.5 174.5t-95.5 143.5t-143.5 96t-175 35.5zM511.5 -21q-109.5 0 -203 54t-147.5 147t-54 203t54 203.5
t147.5 147.5t203 54t203 -54t147.5 -147.5t54 -203.5t-54 -203t-147.5 -147t-203 -54zM703 575q-6 6 -14.5 6t-14.5 -6l-162 -163l-163 163q-6 6 -14.5 6t-14.5 -6t-6 -14.5t6 -14.5l163 -163l-163 -162q-6 -6 -6 -14.5t6 -14.5t14.5 -6t14.5 6l163 162l162 -162
q6 -6 14.5 -6t14.5 6t6 14.5t-6 14.5l-163 162l163 163q6 6 6 14.5t-6 14.5z" />
    <glyph glyph-name="xiaoxi11" unicode="&#xe69b;" 
d="M511 832q-119 0 -220 -51.5t-159.5 -139.5t-58.5 -192q0 -89 44 -167t120 -132v-194l192 116q42 -6 82 -6q119 0 220 51t159.5 139.5t58.5 192.5t-58.5 192t-159.5 139.5t-220 51.5zM511 129q-35 0 -71 7l-24 3l-115 -69v113l-27 19q-65 46 -101 110.5t-36 136.5
q0 86 50 159.5t136.5 116.5t188 43t187.5 -43t136 -116.5t50 -160t-50 -160t-136 -116.5t-188 -43zM259 449.5q0 -25.5 18 -44t44 -18.5t44.5 18.5t18.5 44t-18.5 44t-44.5 18.5t-44 -18.5t-18 -44zM451 449.5q0 -25.5 18.5 -44t44 -18.5t44 18.5t18.5 44t-18.5 44t-44 18.5
t-44 -18.5t-18.5 -44zM643 447.5q0 -25.5 18.5 -44t44 -18.5t44 18.5t18.5 44t-18.5 44t-44 18.5t-44 -18.5t-18.5 -44z" />
    <glyph glyph-name="zhifubao-copy" unicode="&#xe65b;" 
d="M588 226q-76 -61 -104 -77q-32 -19 -67 -30q-30 -9 -53 -11.5t-38 -3.5q-2 -1 -4 -1h-11q-40 0 -74.5 9.5t-60.5 27.5t-41 45.5t-15 64.5q1 31 17.5 57t42.5 44t58 27t64 8t61 -7.5t56 -15t51 -18.5t46 -19q8 -4 17 -7q10 -4 20 -7q21 26 35 51.5t23.5 46.5t14.5 35.5
t6 19.5h-310v35h146v79h-204v35h204v64q0 6 7.5 10t16.5 6q11 2 24 2h55v-82h210v-35h-210v-79h167v0v0v0v0q-5 -32 -17 -68q-10 -30 -29.5 -69.5t-52.5 -81.5q19 -8 51 -22t121 -43t166 -41q45 100 45 210q0 103 -40.5 197.5t-108.5 163t-162.5 109t-198.5 40.5
t-198.5 -40.5t-162.5 -109t-108.5 -163t-40.5 -198t40.5 -198t108.5 -163t162.5 -108.5t198.5 -40q129 0 240 59.5t181 161.5q-66 15 -142 44t-203 86zM187 249q-1 -25 9.5 -43.5t24.5 -28t32 -15t28 -7t18 -1.5q59 -2 123 36q6 4 13 9t13.5 10t14 11t13.5 11.5t12 10.5
t10 8.5t7 6.5l3 3q3 2 5 5q-20 11 -40 21q-92 44 -142 49q-40 4 -70 -4.5t-45 -24.5t-22 -30.5t-7 -26.5z" />
    <glyph glyph-name="qianbi" unicode="&#xe618;" 
d="M692.5 836q-104.5 0 -175 -30.5t-70.5 -76.5v-182q-57 15 -127 15q-106 0 -175.5 -30.5t-69.5 -76.5v-431h6q18 -37 84 -60t155 -23q107 0 176.5 30.5t69.5 77.5v38q57 -14 126 -14q105 0 175.5 30.5t70.5 76.5v549q0 46 -70.5 76.5t-175 30.5zM454 364q13 3 25 8
q24 8 42 19q5 3 9 6v-62q0 -18 -36 -37q-18 -10 -43 -17q-57 -17 -131 -17q-90 0 -149.5 23t-59.5 48v62q68 -50 209 -50q74 0 134 17zM454 244q13 4 25 8q7 3 18 7q13 6 27 15q4 2 6 4v-86q0 -19 -36 -38q-10 -5 -24 -10q-63 -24 -150 -24q-90 0 -149.5 23.5t-59.5 48.5v86
q68 -50 209 -50q75 0 134 16zM111 134q68 -49 209 -49q106 0 177 31q14 6 27 15l6 4v-86v-2q-2 -25 -61 -47.5t-149 -22.5t-149.5 23.5t-59.5 48.5v85zM512 429q-10 -8 -23 -14q-6 -4 -14 -7q-10 -4 -24 -8q-57 -17 -131 -17q-90 0 -149.5 23.5t-59.5 48.5t59.5 48t149.5 23
q73 0 131 -17q15 -4 25 -8q54 -22 54 -46q0 -13 -18 -26zM483 729q0 25 59.5 48.5t150 23.5t150 -23.5t59.5 -48.5t-59.5 -48t-150.5 -23q-61 0 -110.5 11.5t-74 28t-24.5 31.5zM483 610v62q68 -50 209 -50t210 50v-62q0 -25 -59.5 -48t-150 -23t-150 23t-59.5 48zM483 536
v17q68 -50 209 -50t210 50v-86q0 -25 -59.5 -48.5t-150.5 -23.5q-69 0 -126 16v44q0 50 -83 81zM566 374q57 -15 126 -15q142 0 210 50v-86q0 -25 -59.5 -48t-150.5 -23q-70 0 -126 16v106zM566 230q57 -14 126 -14q141 0 210 50v-86q0 -25 -59.5 -48.5t-150.5 -23.5
q-70 0 -126 16v106z" />
    <glyph glyph-name="renwu3" unicode="&#xe635;" 
d="M639 793h-23h-28h-324q-42 0 -72 -30t-30 -72v-614q0 -42 30 -72t72 -30h512q42 0 72 30t30 72v433v32v19zM815 561h-104q-30 0 -51 21t-21 51v94zM827 97q0 -29 -21 -50t-50 -21h-471q-30 0 -51 21t-21 50v574q0 29 21 50t51 21h303v-130q0 -42 30 -72t72 -30h137v-413z
M776 429q0 -11 -7.5 -18.5t-18.5 -7.5h-460q-11 0 -18.5 7.5t-7.5 18.5v0q0 10 7.5 17.5t18.5 7.5h460q11 0 18.5 -7.5t7.5 -17.5v0zM776 272q0 -11 -7.5 -18.5t-18.5 -7.5h-460q-11 0 -18.5 7.5t-7.5 18.5v0q0 11 7.5 18.5t18.5 7.5h460q11 0 18.5 -7.5t7.5 -18.5v0z
M776 117q0 -10 -7.5 -17.5t-18.5 -7.5h-460q-11 0 -18.5 7.5t-7.5 17.5v0q0 11 7.5 18.5t18.5 7.5h460q11 0 18.5 -7.5t7.5 -18.5v0zM512 611h-222q-11 0 -18.5 -7.5t-7.5 -18t7.5 -18t18.5 -7.5h222q11 0 18.5 7.5t7.5 18t-7.5 18t-18.5 7.5z" />
    <glyph glyph-name="wujiaoxing" unicode="&#xe630;" 
d="M772 -28q-8 0 -16 4l-233 123q-11 5 -22 0l-233 -123q-8 -4 -16 -4q-15 0 -25 12q-10 11 -7 27l44 260q2 12 -6 20l-189 185q-15 14 -9 33.5t27 22.5l261 38q12 2 17 12l117 237q9 19 30 19t30 -19l117 -237q5 -10 17 -12l261 -38q21 -3 27 -22.5t-9 -33.5l-189 -185
q-8 -8 -6 -20l44 -260q3 -16 -7 -27q-10 -12 -25 -12zM512 112q8 0 15 -4l234 -123q5 -3 11 -3q10 0 17 8t5 19l-44 260q-3 17 9 30l189 184q11 10 6.5 23.5t-18.5 15.5l-262 38q-17 2 -25 18l-117 237q-6 13 -20 13t-20 -13l-117 -237q-8 -16 -25 -18l-262 -38
q-14 -2 -18.5 -15.5t6.5 -23.5l189 -184q12 -13 9 -30l-44 -260q-2 -11 5 -19t17 -8q6 0 11 3l234 123q7 4 15 4z" />
    <glyph glyph-name="weixin1" unicode="&#xe610;" 
d="M512 -125q-103 0 -197.5 40.5t-162.5 108.5t-108.5 162.5t-40.5 197.5t40.5 197.5t108.5 162.5t162.5 108.5t197.5 40.5t197.5 -40.5t162.5 -108.5t108.5 -162.5t40.5 -197.5t-40.5 -197.5t-108.5 -162.5t-162.5 -108.5t-197.5 -40.5zM512 865q-98 0 -187 -38
t-153.5 -102.5t-102.5 -153.5t-38 -187t38 -187t102.5 -153.5t153.5 -102.5t187 -38t187 38t153.5 102.5t102.5 153.5t38 187t-38 187t-102.5 153.5t-153.5 102.5t-187 38zM617 479q10 0 20 -1q-13 63 -73.5 105t-137.5 42q-86 0 -147.5 -52t-61.5 -126q0 -83 84 -141
l-21 -63l73 36q53 -10 73 -10q9 0 20 1q-7 22 -7 43q0 69 52 117.5t126 48.5zM505 536q12 0 19 -7t7 -19t-7 -19t-19 -7q-13 0 -22.5 7t-9.5 18.5t9.5 19t22.5 7.5zM358 484q-12 0 -21.5 7t-9.5 18.5t9.5 19t21.5 7.5t19 -7t7 -19t-7 -19t-19 -7zM808 316q0 62 -53 107
t-124 45q-75 0 -126.5 -44.5t-51.5 -107.5t51.5 -107.5t126.5 -44.5q21 0 62 11l58 -32l-16 52q73 55 73 121zM573 342q-8 0 -14.5 6.5t-6.5 14.5t6.5 14.5t14.5 6.5q11 0 18.5 -6.5t7.5 -14.5t-7.5 -14.5t-18.5 -6.5zM688 342q-8 0 -14.5 6.5t-6.5 14.5t6.5 14.5t14.5 6.5
q11 0 18.5 -6.5t7.5 -14.5t-7.5 -14.5t-18.5 -6.5v0z" />
    <glyph glyph-name="jinbi" unicode="&#xe66a;" 
d="M512 755q-101 0 -186 -50t-135 -135t-50 -186t50 -186t135 -135t186 -50t186 50t135 135t50 186t-50 186t-135 135t-186 50v0zM691 415v-43h-128v-85h128v-43h-128v-86h-86v86h-129v43h129v85h-129v43h129l-171 172h85l129 -129l129 129h85l-171 -172h128v0zM691 415z
" />
    <glyph glyph-name="wenhao" unicode="&#xe685;" 
d="M464 142q0 20 14 34t34 14t34 -14t14 -34t-14 -34t-34 -14t-34 14t-14 34v0zM512 -65q-91 0 -174.5 36t-143.5 96t-96 143.5t-36 174.5t36 174.5t96 143.5t143.5 96t174.5 36t174.5 -36t143.5 -96t96 -143.5t36 -174.5t-36 -174.5t-96 -143.5t-143.5 -96t-174.5 -36v0z
M512 770q-104 0 -193 -51.5t-140.5 -140.5t-51.5 -193t51.5 -193t140.5 -140.5t193 -51.5t193 51.5t140.5 140.5t51.5 193t-51.5 193t-140.5 140.5t-193 51.5v0zM512 223q-13 0 -22.5 9.5t-9.5 22.5v54q0 25 13 50t25.5 39.5t36.5 38.5q18 18 26.5 27.5t17.5 23.5t9 23
q0 41 -28 69.5t-68 28.5q-41 0 -68.5 -27.5t-27.5 -67.5q0 -14 -9.5 -23t-23 -9t-23 9t-9.5 23q0 65 47.5 112t113.5 47t113.5 -47.5t47.5 -114.5q0 -22 -12.5 -45.5t-24 -37t-35.5 -36.5q-19 -19 -28.5 -29.5t-19 -26t-9.5 -27.5v-54q0 -13 -9.5 -22.5t-22.5 -9.5v0z
M512 223z" />
    <glyph glyph-name="paihangbang" unicode="&#xe64f;" 
d="M955.5 703q-4.5 6 -11.5 6h-108l-4 -28h93l-7 -16q-10 -26 -24 -52.5t-38 -63t-58.5 -72t-74.5 -60.5l-12 -7q-10 -6 -20 -11q-27 -14 -48 -23t-29 -10l-8 -2q29 17 53 45q30 37 51.5 89.5t31 97t15 93.5t6 68t0.5 32v26v2q0 6 -4 10t-10 4h-474q-12 0 -13 -12l-1 -3v-21
q0 -12 0.5 -32t6 -70t15.5 -95.5t31.5 -98.5t51.5 -90q24 -28 53 -45q-22 3 -73 29q-51 23 -94 60.5t-72 79t-45.5 72.5t-28.5 60l-7 16h93l-3 28h-109q-7 0 -11 -6t-2 -12q1 -7 5.5 -19t19.5 -44t33.5 -62.5t49.5 -69t66.5 -68.5t85 -55.5t104.5 -36.5l10 -1l-1 -10
q-2 -96 -68 -178l-3 -4h-70q-8 0 -14 -8t-6 -19v-150q0 -11 6 -19t14 -8h427q7 0 13 8t6 19v150q0 11 -6 19t-13 8h-71l-3 4q-66 82 -68 178v10l9 1q55 11 105 36.5t85 55.5t66 68.5t49.5 69t33.5 62.5t19.5 44t6.5 19q2 6 -2.5 12zM717 115v-149h-410v149h410zM607 161
l12 -18h-213l11 18q47 74 51 157l1 11h87v-11q4 -83 51 -157zM513 357h-1h-1q-62 6 -108 52q-30 30 -53 79.5t-34 93.5t-18 94.5t-8 74t-1 40.5v12h446v-14q1 -10 0 -30t-7 -71t-16.5 -97t-34 -98t-55.5 -84q-46 -46 -109 -52z" />
    <glyph glyph-name="pen" unicode="&#xe69a;" 
d="M512 834q-186 0 -318 -132t-132 -318t132 -318t318 -132t318 132t132 318t-132 318t-318 132zM512 -38q-115 0 -212 56.5t-153.5 153.5t-56.5 212t56.5 212t153.5 153.5t212 56.5t212 -56.5t153.5 -153.5t56.5 -212t-56.5 -212t-153.5 -153.5t-212 -56.5zM707 374
l-183 278q-4 7 -12 7t-12 -7l-183 -279q-3 -5 -1 -11.5t8 -8.5h1q7 -3 32.5 -32t57.5 -73h-30q-11 0 -19.5 -8t-8.5 -20v-28q0 -12 8.5 -20t19.5 -8h254q11 0 19.5 8t8.5 20v28q0 12 -8.5 20t-19.5 8h-30q32 44 57 73t33 32q7 2 9 8.5t-1 12.5zM634.5 216q4.5 -4 4.5 -10
t-4.5 -10t-10.5 -4h-225q-5 0 -9.5 4t-4.5 10t4.5 10t9.5 4h225q6 0 10.5 -4zM575 249h-126q-65 93 -100 121l149 227v-157q0 -6 4 -10t10 -4t10 4t4 10v157l149 -227q-35 -28 -100 -121zM653 138h-282q-5 0 -9.5 -4.5t-4.5 -10t4.5 -10t9.5 -4.5h282q5 0 9.5 4.5t4.5 10
t-4.5 10t-9.5 4.5z" />
    <glyph glyph-name="204" unicode="&#xe653;" 
d="M1015 392q-262 333 -538 316q-100 -6 -196 -58q-77 -41 -148 -109q-80 -77 -126 -152q-5 -8 -5 -17q0 -10 5 -18q46 -75 126 -152q71 -68 148 -109q96 -52 196 -58q13 -1 26 -1q263 0 512 317q7 9 7 21q0 11 -7 20zM481 96q-157 9 -304 149q-61 58 -108 127
q47 68 108 126q147 140 304 149q237 14 472 -275q-235 -290 -472 -276zM512 517q-62 0 -106 -44t-44 -106.5t44 -106.5t106 -44t106.5 44t44.5 106.5t-44.5 106.5t-106.5 44zM511.5 278q-36.5 0 -63 26t-26.5 62.5t26.5 63t63 26.5t62.5 -26.5t26 -63t-26 -62.5t-62.5 -26z
" />
    <glyph glyph-name="weibo1" unicode="&#xe613;" 
d="M512 896q-104 0 -199 -40.5t-163.5 -109t-109 -163.5t-40.5 -199t40.5 -199t109 -163.5t163.5 -109t199 -40.5t199 40.5t163.5 109t109 163.5t40.5 199t-40.5 199t-109 163.5t-163.5 109t-199 40.5v0zM512 -64q-91 0 -174 35.5t-143 95.5t-95.5 143t-35.5 174t35.5 174
t95.5 143t143 95.5t174 35.5t174 -35.5t143 -95.5t95.5 -143t35.5 -174t-35.5 -174t-95.5 -143t-143 -95.5t-174 -35.5v0zM512 -64zM667 409q-11 2 -14 6.5t-1 7.5l2 3q3 5 6 12t2.5 24.5t-12.5 30.5q-20 15 -46.5 14t-49.5 -10l-24 -8q-21 -7 -23 1t4 28q0 10 -1.5 19
t-7.5 19t-16 15t-28 5t-43 -9q-24 -8 -49 -24.5t-44 -34.5t-34.5 -34.5t-23.5 -27.5l-8 -11q-23 -30 -34.5 -60.5t-10.5 -45.5v-15q5 -42 27.5 -72.5t58.5 -47.5t71.5 -25.5t76.5 -11.5q82 -6 166 27.5t114 95.5q11 25 11.5 47t-7 35.5t-20 24t-23.5 15.5t-19 7v0zM452 190
q-76 -3 -129 30t-53 83t53 86.5t129 39.5q77 4 130 -25t53 -79q0 -51 -54 -91.5t-129 -43.5v0zM452 190zM432 385q-90 -11 -90 -107q0 -3 0.5 -8.5t7.5 -18t19 -18.5q46 -23 86.5 -14t65.5 41q11 15 12.5 38t-7 44t-33.5 34t-61 9v0zM406 252q-14 -2 -24 5t-10 19t9.5 22.5
t23.5 11.5q16 2 26 -6t10 -20t-10.5 -21.5t-24.5 -10.5v0zM466 302q-12 -8 -18 2q-7 11 5 19q12 10 18 -1t-5 -20v0zM466 302zM716 450q14 0 16 14q1 1 1 2q3 31 -5 52t-22 28.5t-28.5 10.5t-25.5 2l-11 -1q-7 0 -11.5 -5t-4.5 -12t4.5 -12t11.5 -5q22 5 35 1t18 -14
t6.5 -19.5t-0.5 -17.5l-1 -8q0 -6 5 -11t12 -5v0zM716 450zM704 644q-36 9 -83 -1h-1t-1 -1h-1q-17 -5 -17 -23q0 -10 7 -17.5t17 -7.5q13 2 22 6q6 2 26 0t48.5 -17t44.5 -43q19 -42 8 -80q-5 -12 -5 -23q0 -10 7 -16t17 -6t16 4t7 16h1q12 50 7.5 86.5t-25.5 62.5t-45 40
t-50 20v0zM704 644z" />
    <glyph glyph-name="bangzhufankui" unicode="&#xe61a;" 
d="M512 -49q-88 0 -168 34q-78 33 -138 93t-93 138q-34 80 -34 168t34 168q33 78 93 138t138 93q80 34 168 34t168 -34q78 -33 138 -93t93 -138q34 -80 34 -168t-34 -168q-33 -78 -93 -138t-138 -93q-80 -34 -168 -34zM512 781q-81 0 -154 -31q-72 -31 -126.5 -85.5
t-85.5 -126.5q-31 -73 -31 -154t31 -154q31 -72 85.5 -126.5t126.5 -85.5q73 -31 154 -31t154 31q72 31 126.5 85.5t85.5 126.5q31 73 31 154t-31 154q-31 72 -85.5 126.5t-126.5 85.5q-73 31 -154 31zM470 159.5q0 -17.5 12.5 -29.5t29.5 -12t29.5 12t12.5 29.5t-12.5 30
t-29.5 12.5t-29.5 -12.5t-12.5 -30zM512 257q-12 0 -20 8t-8 20v47q0 22 11.5 44t22.5 34.5t32 33.5q15 16 23 24t15.5 20.5t7.5 20.5q0 35 -24.5 60t-59.5 25t-59.5 -24t-24.5 -59q0 -11 -8.5 -19.5t-20 -8.5t-19.5 8.5t-8 19.5q0 58 41 98.5t99 40.5t99 -41t41 -100
q0 -19 -10.5 -39.5t-21 -32.5t-30.5 -32q-17 -17 -25 -26t-16.5 -22.5t-8.5 -24.5v-47q0 -12 -8 -20t-20 -8z" />
    <glyph glyph-name="xuexiao" unicode="&#xe607;" 
d="M916 457h-809q-13 0 -17 12.5t7 19.5l404 277q10 7 20 0l405 -277q11 -7 7 -19.5t-17 -12.5v0zM164 492h695l-348 238l-347 -238v0zM209 108q-8 0 -13 5t-5 13v335q0 7 5 12t12.5 5t12.5 -5t5 -12v-335q0 -8 -5 -13t-12 -5v0zM814 108q-7 0 -12.5 5t-5.5 13v335
q0 7 5.5 12t12.5 5t12.5 -5t5.5 -12v-335q0 -8 -5.5 -13t-12.5 -5v0zM360 108q-7 0 -12.5 5t-5.5 13v335q0 7 5.5 12t12.5 5t12.5 -5t5.5 -12v-335q0 -8 -5.5 -13t-12.5 -5v0zM511 108q-7 0 -12.5 5t-5.5 13v335q0 7 5.5 12t12.5 5t12.5 -5t5.5 -12v-335q0 -8 -5.5 -13
t-12.5 -5v0zM663 108q-8 0 -13 5t-5 13v335q0 7 5 12t12.5 5t12.5 -5t5 -12v-335q0 -8 -5 -13t-12 -5v0zM871 104h-719q-7 0 -12 5t-5 12.5t5 12.5t12 5h719q7 0 12 -5t5 -12.5t-5 -12.5t-12 -5v0zM941 2h-859q-8 0 -13 5.5t-5 12.5t5 12t13 5h859q7 0 12.5 -5t5.5 -12
t-5.5 -12.5t-12.5 -5.5v0z" />
    <glyph glyph-name="shenfenzhenghao" unicode="&#xe659;" 
d="M600 476h205q8 0 14 7t6 16.5t-6 16t-14 6.5h-205q-9 0 -15 -6.5t-6 -16t6 -16.5t15 -7zM600 384h205q8 0 14 6.5t6 16.5t-6 16.5t-14 6.5h-205q-9 0 -15 -6.5t-6 -16.5t6 -16.5t15 -6.5zM600 292h205q8 0 14 6.5t6 16t-6 16.5t-14 7h-205q-9 0 -15 -7t-6 -16.5t6 -16
t15 -6.5zM277 177h157q37 0 57.5 3.5t30 15.5t11 23.5t1.5 37.5q0 43 -29.5 73.5t-70.5 30.5h-5q28 19 44 49t16 66q0 57 -39.5 97.5t-95 40.5t-95 -40.5t-39.5 -97.5q0 -36 16 -66t43 -49h-2q-42 0 -71.5 -30.5t-29.5 -73.5q0 -18 0.5 -26t3.5 -19.5t9 -16.5t17 -10
t28.5 -6.5t42.5 -1.5zM266 476q0 38 26 65.5t63 27.5t63.5 -27.5t26.5 -65.5t-26.5 -65t-63.5 -27t-63 27t-26 65zM354 358q52 0 105 -38t53 -68q0 -28 -33 -40t-125 -12q-84 0 -121 12.5t-37 39.5q0 30 53 68t105 38zM893 753h-762q-27 0 -47 -20.5t-20 -48.5v-600
q0 -28 20 -48.5t47 -20.5h762q27 0 47 20.5t20 48.5v600q0 28 -20 48.5t-47 20.5zM907 68h-790v632h790v-632z" />
    <glyph glyph-name="morentouxiang" unicode="&#xe62e;" 
d="M512 -128q-104 0 -199 40.5t-163.5 109t-109 163.5t-40.5 199t40.5 199t109 163.5t163.5 109t199 40.5t199 -40.5t163.5 -109t109 -163.5t40.5 -199t-40.5 -199t-109 -163.5t-163.5 -109t-199 -40.5zM511 731q-72 0 -123 -51.5t-51 -123.5t51 -123.5t123 -51.5t123 51.5
t51 123.5t-51 123.5t-123 51.5zM657 368q-83 -66 -143 -66q-62 0 -145 67q-50 -18 -87.5 -65.5t-53 -94t-15.5 -81.5h598q0 35 -15.5 81t-52.5 93t-86 66z" />
    <glyph glyph-name="card" unicode="&#xe622;" 
d="M860 56h-696q-17 0 -32 7q-15 6 -26 17.5t-18 25.5q-6 16 -6 32v512q0 17 6 32q7 15 18 26.5t26 17.5t32 6h696q17 0 32 -6t26 -17.5t18 -26.5q6 -15 6 -32v-512q0 -16 -6 -32q-7 -14 -18 -25.5t-26 -17.5q-15 -7 -32 -7zM164 691q-17 0 -29 -12t-12 -29v-512
q0 -17 12 -29t29 -12h696q17 0 29 12t12 29v512q0 17 -12 29t-29 12h-696zM102 548h820v-42h-820v42zM861 138h-267v165h267v-165zM635 179h185v83h-185v-83z" />
    <glyph glyph-name="dianzan" unicode="&#xe692;" 
d="M880 539q-10 3 -24.5 5t-41 3t-44.5 1.5t-61.5 1.5t-65.5 2q7 32 7 91q0 74 -44 131.5t-94 57.5q-34 0 -59 -24.5t-25 -58.5q0 -25 -4.5 -49.5t-16 -54t-35 -56t-56.5 -43.5q-18 -9 -29 -15l1 -1q-26 22 -56 22h-84q-34 0 -59 -24.5t-25 -58.5v-448q0 -35 25 -59.5
t59 -24.5h84q25 0 44.5 13.5t30.5 34.5h1q1 0 3 -0.5t4 -1.5h1q34 -8 114 -27q84 -19 167 -19h153q72 0 100 54q12 21 25.5 52.5t35 91t35 141.5t13.5 167q0 30 -20 57.5t-59 38.5v0zM260 21q0 -12 -8 -20t-20 -8h-84q-11 0 -19.5 8t-8.5 20v448q0 11 8.5 19.5t19.5 8.5h84
q12 0 20 -8.5t8 -19.5v-448v0zM903 426q-2 -45 -6.5 -88t-11 -77.5t-14.5 -65.5t-16 -55t-16 -44.5t-15 -34.5l-12 -24t-8.5 -15t-3.5 -4q-13 -25 -50 -25h-153q-75 0 -155 18q-110 25 -130 31l4 411v31q46 19 80 49.5t52 67t27 73t9 74.5q0 11 8 19.5t20 8.5
q25 0 53.5 -40.5t28.5 -92.5q0 -48 -4 -71t-22 -75q133 0 198 -2t76 -3.5t28 -5.5q34 -9 34 -43q0 -1 -1 -17v0zM903 426z" />
    <glyph glyph-name="zhifubao1" unicode="&#xe65a;" 
d="M356 351q19 0 37.5 -2.5t37.5 -8.5t31 -10.5t34 -14t30 -13.5q-47 -57 -88 -88t-82 -31q-23 0 -45.5 4t-45.5 12.5t-37 26t-14 40.5q0 39 44 62t98 23v0zM893 700v-631q0 -27 -19.5 -47t-47.5 -20h-631q-28 0 -47.5 20t-19.5 47v631q0 28 19.5 47.5t47.5 19.5h631
q28 0 47.5 -19.5t19.5 -47.5v0zM893 254q-41 10 -253 84q33 56 51 122l3 9q1 4 2 9.5t2.5 12t1.5 9.5h-152v39h191v38h-191v77h-77v-77h-191v-38h191v-39h-153v-38h286q-10 -53 -36 -100q-14 5 -44 13t-82 17.5t-88 9.5q-34 0 -71.5 -15t-67 -47.5t-29.5 -73.5
q0 -65 43.5 -100.5t124.5 -35.5q145 0 241 143q68 -29 171.5 -79t126.5 -60v120v0zM893 254z" />
    <glyph glyph-name="dianliangwangguan-copy" unicode="&#xe694;" 
d="M512 896q-139 0 -257 -68.5t-186.5 -186.5t-68.5 -257t68.5 -257t186.5 -186.5t257 -68.5t257 68.5t186.5 186.5t68.5 257t-68.5 257t-186.5 186.5t-257 68.5zM857 451q-4 0 -8 1l-94 -369h-495l-80 364q-6 -1 -13 -1q-22 0 -37 15t-15 37t15 37.5t37 15.5t37.5 -15.5
t15.5 -37.5t-16 -37q-6 -6 -14 -10l195 -185l127 314q-18 2 -30 15q-16 15 -16 37t15.5 37.5t37 15.5t37 -15.5t15.5 -37.5t-15 -37q-13 -13 -31 -15l122 -314l192 188q-11 4 -19 13q-16 15 -16 36.5t15.5 37t37.5 15.5t37 -15.5t15 -37t-15 -37t-37 -15.5z" />
    <glyph glyph-name="7" unicode="&#xe62f;" 
d="M512 834q-91 0 -174.5 -36t-143.5 -96t-96 -143.5t-36 -174.5t36 -174.5t96 -143.5t143.5 -96t174.5 -36t174.5 36t143.5 96t96 143.5t36 174.5t-36 174.5t-96 143.5t-143.5 96t-174.5 36zM512 584q46 0 79 -33t33 -79.5t-33 -79.5t-79 -33t-79 33t-33 79.5t33 79.5
t79 33zM705 186h-386q-11 0 -11 10q3 57 34 102.5t81 69.5q5 3 11 -1q35 -26 78 -26q44 0 78 26q5 4 11 1q50 -24 81 -69.5t34 -102.5q0 -10 -11 -10z" />
    <glyph glyph-name="fanlixinxi" unicode="&#xe61b;" 
d="M431 309h-119v-47h119v-119h47v119h118v47h-118v71h-47v-71v0zM501 427h95v-47h-284v47h95v0l-111 178h51l107 -176l107 176h50l-110 -178v0v0zM853 320q0 7 -1 19.5t-1.5 22.5t-0.5 15q5 171 -115 291q-78 77 -181 104.5t-205.5 0t-180.5 -105.5t-104 -179.5t2.5 -202
t106.5 -179t179 -107t202.5 -2.5t179.5 104l35 -35q-86 -86 -202 -116.5t-232 0t-202 116.5t-116.5 202t0 232t116.5 202t202 116.5t232 0t202 -116.5q65 -66 99 -151t31 -176q0 -25 -2 -62l97 96l28 -29l-111 -110q-13 -14 -32.5 -14t-32.5 14l-111 110l29 29l89 -89v0v0z
" />
    <glyph glyph-name="xinfengkuai" unicode="&#xe602;" 
d="M512 291l-106 88l-371 -379h944l-363 379zM0 710v-633q0 -7 3 -23l354 365zM992 768h-960l480 -384zM669 419l352 -366q3 13 3 22v634z" />
    <glyph glyph-name="suo" unicode="&#xe60e;" 
d="M823 514h-78v98q0 97 -69 166t-166.5 69t-166 -69t-68.5 -166v-98h-79q-24 0 -41 -17.5t-17 -41.5v-470q0 -24 17 -41.5t41 -17.5h627q24 0 41.5 17.5t17.5 41.5v470q0 24 -17.5 41.5t-41.5 17.5zM314 612q0 81 57.5 138.5t138.5 57.5t138 -57.5t57 -138.5v-98h-391v98z
M843 -15q0 -8 -6 -14t-14 -6h-627q-8 0 -13.5 6t-5.5 14v470q0 8 5.5 14t13.5 6h627q8 0 14 -6t6 -14v-470zM509.5 318q-24.5 0 -41.5 -17t-17 -42q0 -26 19 -43v-55q0 -16 11.5 -27.5t28 -11.5t28 11.5t11.5 27.5v55q19 17 19 43q0 25 -17 42t-41.5 17z" />
    <glyph glyph-name="touxiang-copy" unicode="&#xe611;" 
d="M282 404q-4 0 -6 -1q3 1 6 1v0zM891 162v3v-3zM932 610v0v1v-1zM891 610v0v1v-1zM916 0q-9 64 -38 122q-5 12 -11 23v0q-28 46 -66 84h-1q-8 8 -17 16q-64 56 -143 82q14 7 27 17q15 11 28 25q73 73 73 176t-73 176q-71 72 -172 73h-3h-4q-101 -1 -172 -73
q-73 -73 -73 -176t73 -176q13 -14 28 -25q13 -10 28 -17q-80 -26 -144 -82q-9 -8 -17 -16q-39 -38 -66 -84q-7 -11 -12 -23q-29 -58 -37 -122q-2 -10 4.5 -18.5t16.5 -9.5h3.5h2.5q17 4 20 21q17 118 103 205q49 50 112.5 77.5t133.5 28.5v0q69 -1 132.5 -29t112.5 -77
q86 -87 103 -205q3 -17 20 -21v0h2.5h3.5q10 1 16.5 9.5t5.5 18.5v0zM519 345h-1q-70 1 -126 44t-73 109q-1 1 -1 2q-5 22 -5 45t5 45q0 1 1 3q17 67 74 113t126 46h1q70 0 126.5 -46t73.5 -113q1 -2 1 -3q6 -22 6 -45t-6 -45q0 -1 -1 -2q-17 -66 -73 -109t-125 -44h-3z" />
    <glyph glyph-name="xiugai" unicode="&#xe644;" 
d="M819 0h-614q-32 0 -54.5 22.5t-22.5 54.5v614q0 32 22.5 54.5t54.5 22.5h435q11 0 18.5 -7.5t7.5 -18.5v0q0 -10 -7.5 -17.5t-18.5 -7.5h-435q-11 0 -18.5 -7.5t-7.5 -18.5v-614q0 -11 7.5 -18.5t18.5 -7.5h614q11 0 18.5 7.5t7.5 18.5v230q0 11 7.5 18.5t17.5 7.5v0
q11 0 18.5 -7.5t7.5 -18.5v-230q0 -32 -22.5 -54.5t-54.5 -22.5zM501 268q-12 -12 -28 -12t-27.5 11.5t-11.5 27.5t12 28l383 383q12 12 28 12t27.5 -11.5t11.5 -27.5t-12 -28z" />
    <glyph glyph-name="zhichu" unicode="&#xe628;" horiz-adv-x="1025" 
d="M512 896q-139 0 -257 -68.5t-186.5 -186.5t-68.5 -257t68.5 -257t186.5 -186.5t257 -68.5t257 68.5t186.5 186.5t68.5 257t-68.5 257t-186.5 186.5t-257 68.5zM512 -92q-97 0 -185 38t-151.5 101.5t-101.5 151.5t-38 185t38 185t101.5 151.5t151.5 101.5t185 38t185 -38
t151.5 -101.5t101.5 -151.5t38 -185t-38 -185t-101.5 -151.5t-151.5 -101.5t-185 -38zM617 165q-46 -10 -102 -10q-76 0 -130 17.5t-54 42.5q0 3 1 6h-1v56q66 -44 184 -44q37 0 72 6q-1 8 -1 17t1 18q-35 -4 -72 -4q-76 0 -130 17.5t-54 42.5q0 2 2 6h-2v55q66 -43 184 -43
q61 0 113 13q43 46 107 47v133q0 3 -1 6q1 4 1 9q0 38 -64.5 65.5t-155.5 27.5t-155.5 -27.5t-64.5 -65.5q0 -5 1 -9q-1 -3 -1 -6v-326q0 -39 64.5 -67.5t155.5 -28.5q72 0 130 19q-16 12 -28 27zM515 613q76 0 130 -17t54 -40.5t-54 -40.5t-130 -17t-130 17t-54 40.5
t54 40.5t130 17zM331 450v54q65 -42 184 -42t184 42v-54h-1q1 -3 1 -6q0 -25 -54 -42.5t-130 -17.5t-130 17.5t-54 42.5q0 3 1 6h-1zM620 232l-1 51l235 2l1 -51z" />
    <glyph glyph-name="yaoqinghaoyou" unicode="&#xe621;" horiz-adv-x="1039" 
d="M959 251q-59 84 -152 121q41 29 66 74q29 51 29 112q0 92 -62.5 157t-150.5 65q-12 0 -21 -9t-9 -21t9 -21t21 -9q63 0 107.5 -47.5t44.5 -115t-44.5 -115t-107.5 -47.5q-12 0 -21 -9t-9 -21v0q0 -13 9 -21.5t21 -8.5q113 0 193.5 -85.5t80.5 -205.5q0 -12 9 -21t21.5 -9
t21 8.5t8.5 21.5q0 114 -64 207v0v0v0zM647 302q-48 33 -102 52q57 35 90.5 94t33.5 126q0 107 -75.5 182t-182.5 75t-182.5 -75t-75.5 -182q0 -74 39 -136q33 -53 86 -84q-55 -19 -104 -54q-52 -37 -92 -88q-81 -109 -81 -245q0 -13 8.5 -21.5t21 -8.5t21.5 8.5t9 21.5
q0 144 102 246t245 102q5 0 10 1h2q139 -2 238 -102q102 -102 102 -246q0 -13 9 -21.5t21.5 -8.5t21.5 8.5t9 21.5q0 136 -82 245q-39 51 -92 89v0v0v0zM411 771q82 0 140 -57.5t58 -139t-58 -139.5t-140 -58t-140 58t-58 139.5t58 139t140 57.5v0v0v0z" />
    <glyph glyph-name="dingwei" unicode="&#xe604;" 
d="M512.5 439q-47.5 0 -81.5 34t-34 82t34 82.5t81.5 34.5t81.5 -34.5t34 -82.5t-34 -82t-81.5 -34zM512.5 640q-34.5 0 -59 -25t-24.5 -60t24.5 -59.5t59 -24.5t59 24.5t24.5 59.5t-24.5 60t-59 25zM512 31l-12 15q-13 15 -31.5 38.5t-62 86t-76.5 120.5t-59.5 129.5
t-26.5 125.5q0 116 78.5 198.5t190.5 82.5q110 0 189 -82.5t79 -198.5q1 -54 -26 -125.5t-60 -129.5t-76.5 -120t-62.5 -86t-32 -39zM513 795q-99 0 -168.5 -73t-69.5 -176q0 -55 28.5 -127.5t73.5 -143.5t75.5 -114.5t59.5 -79.5q29 36 60 79.5t76 114.5t73.5 143.5
t28.5 127.5q-1 103 -70.5 176t-166.5 73zM705 241v-31h63l64 -237h-634l63 237h48v31h-79l-79 -300h728l-79 300h-95z" />
    <glyph glyph-name="yaoqinghaoyou1" unicode="&#xe650;" 
d="M986 8h-94v-94q0 -14 -8.5 -22.5t-22.5 -8.5t-22.5 8.5t-8.5 22.5v94h-94q-14 0 -23 8.5t-9 23t9 23t23 8.5h94v94q0 14 8.5 22.5t22.5 8.5t22.5 -8.5t8.5 -22.5v-94h94q14 0 23 -8.5t9 -23t-9 -23t-23 -8.5v0zM642 321h-50q-34 -28 -78.5 -45t-91.5 -17q-85 0 -169 62
h-44q-51 0 -88 -36.5t-37 -88.5v-125q0 -52 37 -88.5t88 -36.5h433v-63h-433q-79 0 -133 54t-54 134v125q0 76 53.5 132t127.5 56q-56 90 -56 188q0 131 82 222t199.5 91t200 -91t82.5 -222q0 -98 -57 -188q57 -5 104 -39.5t65 -85.5h-69q-41 62 -112 62v0zM429 822
q-90 0 -155 -73.5t-65 -176.5t65 -177t154.5 -74t154.5 74t65 177t-65 176.5t-154 73.5v0z" />
    <glyph glyph-name="xingquaihao" unicode="&#xe608;" 
d="M506 797q-111 0 -205 -54.5t-148.5 -148.5t-54.5 -205t54.5 -205t148.5 -148.5t205 -54.5t205 54.5t148.5 148.5t54.5 205t-54.5 205t-148.5 148.5t-205 54.5v0zM761 134q-50 -50 -115 -78q-67 -28 -140.5 -28t-140.5 28q-65 28 -115 78t-77 114q-29 68 -29 141.5
t29 140.5q27 65 77 115t115 77q67 28 140.5 28t140.5 -28q65 -27 115 -77t78 -115q28 -67 28 -140.5t-28 -141.5q-28 -64 -78 -114v0zM761 134zM298 489q0 -23 16 -39t39 -16t39 16t16 39t-16 39t-39 16t-39 -16t-16 -39v0zM298 489zM601 489q0 -23 16 -39t39 -16t39 16
t16 39t-16 39t-39 16t-39 -16t-16 -39v0zM601 489zM716 352q-9 3 -18 -1.5t-11 -13.5q-20 -62 -70 -99.5t-111.5 -37.5t-111.5 37.5t-69 98.5q-3 9 -11.5 13.5t-18 1.5t-14 -11.5t-1.5 -17.5q24 -74 85 -121q63 -48 141 -48t140 48q61 47 85 121q3 10 -1.5 18.5t-13.5 11.5
v0zM716 352z" />
    <glyph glyph-name="zhangdan" unicode="&#xe62c;" 
d="M914 -128h-804v959h229v-52h-177v-855h700v855h-177v52h229v-959zM710 695h-396v201h396v-201zM366 747h292v97h-292v-97zM285 527h457v-52h-457v52zM285 368h457v-52h-457v52zM285 209h457v-52h-457v52z" />
    <glyph glyph-name="yaoqingren" unicode="&#xe658;" 
d="M150 3q-9 0 -15.5 6.5t-6.5 16.5q0 111 60.5 205.5t163.5 139.5h3l-3 3q-67 68 -67 164t67.5 164.5t162.5 68.5q97 0 165.5 -67.5t68.5 -162.5q0 -50 -19 -93q-14 -36 -48 -70l-4 -4h4q12 -3 32 -16q6 -6 12 -6q4 -3 10 -16q0 -10 -3 -16q-13 -13 -23 -13v0q-9 0 -12 3
q-19 15 -64 32q-55 -32 -122 -32q-68 0 -118 32q-101 -35 -161 -121t-60 -192q0 -14 -5 -20t-18 -6zM512 720q-77 0 -131.5 -54t-54.5 -128q0 -77 54.5 -130t131.5 -53t128 51q26 26 42 58q16 37 16 74q0 74 -54.5 128t-131.5 54zM762 0q-10 0 -18 8t-8 18v86h-86
q-10 0 -18 8t-8 17.5t8 17.5t18 8h86v87q0 9 8 17t17.5 8t17.5 -8t8 -17v-90h87q9 0 17 -8t8 -17.5t-8 -17.5t-17 -8h-87v-87q0 -9 -7.5 -15.5t-17.5 -6.5z" />
    <glyph glyph-name="xiaolian" unicode="&#xe68a;" 
d="M512 -72q-93 0 -177.5 36t-145.5 97t-97 145.5t-36 177.5t36 177.5t97 145.5t145.5 97t177.5 36t177.5 -36t145.5 -97t97 -145.5t36 -177.5t-36 -177.5t-97 -145.5t-145.5 -97t-177.5 -36zM512 792q-111 0 -205 -54.5t-148.5 -148.5t-54.5 -205t54.5 -205t148.5 -148.5
t205 -54.5t205 54.5t148.5 148.5t54.5 205t-54.5 205t-148.5 148.5t-205 54.5zM512 115q-67 0 -128 28t-104 79q-7 8 -6 18t8.5 16.5t17.5 5.5t16 -8q37 -44 88 -67.5t108 -23.5t108 23.5t88 67.5q7 7 16.5 8t17 -5.5t8.5 -16.5t-5 -18q-44 -51 -105 -79t-128 -28zM368 391
h-6q-16 0 -27 11.5t-11 27.5v69q0 16 11 27t27 11h6q16 0 27.5 -11t11.5 -27v-69q0 -16 -11.5 -27.5t-27.5 -11.5zM662 391h-6q-16 0 -27.5 11.5t-11.5 27.5v69q0 16 11.5 27t27.5 11h6q16 0 27 -11t11 -27v-69q0 -16 -11 -27.5t-27 -11.5z" />
    <glyph glyph-name="777" unicode="&#xe660;" horiz-adv-x="1039" 
d="M732 454q-15 0 -30 -1q8 33 8 67q0 123 -88.5 210.5t-213 87.5t-213 -87.5t-88.5 -210.5q0 -67 28 -126.5t80 -102.5q-93 -49 -150.5 -137t-64.5 -192v-6v0v-1v0v-1q0 -28 21.5 -28t21.5 28v1v0l1 6q7 99 65 179t148 115q28 -13 72 -23.5t79 -10.5q20 0 40 3
q-7 -30 -7 -61q0 -121 85 -206t206.5 -85t206 85t84.5 206t-84.5 206t-206.5 85zM408 268q-99 0 -176.5 76.5t-77.5 175t77.5 175t177 76.5t176.5 -76.5t77 -174.5q0 -39 -14 -78q-62 -19 -111 -63t-74 -104q-27 -7 -55 -7zM732 -74q-97 0 -167 70t-70 167q0 39 13 75
q15 44 46 80q19 22 43 39q39 28 85 38q25 5 50 5q97 0 167 -70t70 -167t-70 -167t-167 -70zM878 260l-167 -167l-86 81l-38 -38l124 -124l210 210z" />
    <glyph glyph-name="liantong" unicode="&#xe68e;" 
d="M257 301l2 2l-2 -2v0zM210 352v0v0zM513 383h-1h2h-1zM513 383h1h-1v0zM702 243v0v0v0l-140 140l139 140v0l1 1q33 33 33 79.5t-33 79.5t-79.5 33t-79.5 -32v0l-29 -30l-29 30v0q-34 32 -80 32t-79.5 -33t-33.5 -79.5t33 -79.5l2 -1v0l139 -140l-142 -140v0v0v0v0
q-33 -33 -33 -79.5t33 -79.5q34 -34 80.5 -34t79.5 34q1 1 2 1v0l27 28l28 -28v0l1 -1q34 -34 80.5 -34t79.5 34q33 33 33 79.5t-33 79.5v0zM447 499v0l-73 73q-1 0 -1 0.5v0.5l-1 1v0q-12 13 -12 30q0 18 12.5 31t31.5 13q17 0 29 -12v0l1 -1h1v-1l29 -28l-39 -39l48 -49
l39 39l39 -39l49 49l-39 39l28 28v1h1l1 1v0q12 12 30 12t31 -13t13 -31q0 -17 -12 -30v0l-1 -1h-0.5t-0.5 -1l-73 -73v0l-67 -67zM653 132q-12 -12 -31 -12q-16 0 -29 10v0l-2 2v0l-1 1l-28 28l36 36l-49 49l-36 -36l-36 36l-48 -49l36 -36l-29 -28l-1 -1v0l-2 -2v0
q-12 -10 -29 -10q-18 0 -31 12q-12 13 -12.5 30.5t10.5 30.5v0l2 1v1v0h1l72 73v0l67 66l66 -66v0l73 -73v0v0l1 -1l1 -1v0q12 -14 12 -31t-13 -30zM513 383h1h-1v0zM513 383v0h1h-1zM339 383l43 43l-49 48l-42 -42l-30 30v0l-1 1q-34 33 -80.5 33t-79.5 -33t-33 -79.5
t33 -80t80 -33.5q45 0 77 32v0h1l2 2l31 31l46 -46l48 48zM180 339q-19 0 -31.5 12.5t-12.5 31t12.5 31.5t31 13t31.5 -13l31 -31l-33 -33v0v0q-14 -11 -29 -11zM639 333l49 -48l46 46l31 -31l2 -3v0q33 -31 78 -31q46 0 79.5 33.5t33.5 80t-33.5 79.5t-80 33t-79.5 -33
l-2 -1v0l-29 -30l-43 42l-48 -48l42 -43zM816 346v0v0l-33 33l31 32q13 12 31 12t31 -12.5t13 -31t-13 -31.5t-31 -13t-29 11z" />
    <glyph glyph-name="artboard19" unicode="&#xe772;" 
d="M504 461h0.5h0.5q-2 3 -2 5q1 -4 1 -5v0zM682 268v0h-0.5t0 0h0.5v0v0zM686 267h-2t-2 1q-1 -9 4 -1v0zM512 849q-95 0 -181 -36.5t-148.5 -99t-99 -148.5t-36.5 -181t36.5 -181t99 -148.5t148.5 -99t181 -36.5t181 36.5t148.5 99t99 148.5t36.5 181t-36.5 181t-99 148.5
t-148.5 99t-181 36.5v0zM809 668q-27 -1 -40 -10q-14 -10 -15 -10q-3 -1 -9 -1t-9 -1q-9 -3 -14.5 -16t-12.5 -23t-19 -7t-29 29q-1 2 -4.5 6.5t-4.5 6.5t-2.5 7t2.5 7h-5h-5q3 5 12 8.5t10 5.5q1 4 0.5 6t-4.5 4t-7 3t-7.5 1.5t-5.5 0.5q3 6 10 2.5t10 -3.5q9 3 -4 11
q-3 2 -4 2h-4q-13 -3 -14 0q-1 2 5 7q-35 22 -57 36q-1 -5 3 -9.5t9 -7t13 -5.5t9 -4q-1 -4 -6.5 -8.5t-9.5 -2.5q-3 1 -5.5 6.5t-7.5 4.5q-4 -8 5.5 -12.5t10.5 -7.5q1 -4 -0.5 -5.5t-3 -1.5t-4.5 0.5t-4 0.5l-2.5 1.5t-4 2t-2.5 -1.5q0 -4 6 -6t7 -5q-14 -1 -33 12
q-12 8 -36 8q15 6 16 7q10 8 11 12q2 7 -4 11l-4 2t-7 5.5t-9 7t-8 3.5q-11 2 -15.5 -2t-4.5 -10.5t-3 -13t-11 -7.5q1 -1 2 -1h-2v1q-16 0 -19 -2q-1 -1 -2.5 -6.5t-2.5 -6.5q-3 -3 -10 -6t-9 -4q-17 -11 -22 -20q-1 -8 -1 -12.5t7 -9.5t12.5 -7t14 -5t11.5 -4
q2 -1 9.5 -3.5t14 -5t7.5 -4.5q2 -3 1 -10.5t5 -8.5q9 -4 14 1q4 2 0.5 6.5t-3.5 6.5q0 7 -0.5 8t2.5 1.5t5 2.5q9 6 9 10t-4 14q-8 26 -3 30q7 3 11.5 2t13 -3.5t10.5 -2.5q3 -1 6 -3.5t6 -7t4 -6.5q9 -9 13 -8q5 0 6.5 5t2.5 6q10 4 13 1.5t7 -13.5q1 -2 1 -3
q5 -11 17 -22q1 0 4 -2.5t5 -4.5t5 -4.5t4.5 -5.5t0.5 -5q-1 -6 -25 -13q-11 -4 -22.5 -1.5t-22.5 -1.5t-13 -17q2 0 11 5.5t13.5 7t9.5 -1.5q2 -1 0.5 -6t-1.5 -6q3 -7 9 -7.5t12 2.5q-1 -1 -2 -1q9 4 10.5 5.5t5.5 8.5q1 1 2 4.5t2.5 6t2.5 3.5q7 6 13 -1q2 -2 2 -3
q10 -13 10 -20q-26 6 -43 -5q-21 -14 -23 -15h-16v0q2 2 8 5.5t8 5.5q-2 3 -7.5 1t-6.5 -2.5t-6 -4.5t-7 -4q-4 -3 -9.5 -9.5t-7.5 -8.5t-6.5 -4t-5.5 -4q-2 -1 -3.5 -6t-3.5 -6q0 -1 -4 -2t-5 -3q-1 -3 0.5 -7t1.5 -6q-2 -3 -10 -9t-9 -7l2 2q-1 -1 -6.5 -5.5t-7.5 -8.5
q6 -29 5 -31q-4 -11 -15 10q-2 3 -2 4q-6 9 -15 10.5t-24 -2t-18 -3.5q-17 -2 -28.5 -20t-1.5 -35q10 -18 30 -13q6 1 13.5 9.5t12.5 8.5q9 0 9 -4.5t-5 -12.5t-5 -10q-1 -4 1 -5.5t8 -3.5q2 0 9 0.5t8 -0.5t2 -4t2 -5t3 0q-6 -5 -5 -14t7 -13q2 -3 13 -2.5t15 -0.5
q9 0 10 -0.5t4.5 3.5t8.5 8q4 4 11 1.5t8 -2.5q2 0 6.5 3t9.5 1q3 0 7.5 -3.5t8.5 -3.5q2 -1 5 0t5 1q12 -2 36 -19q4 -3 8 -4.5t9.5 -2.5t8.5 -2q7 -2 14.5 -9t7.5 -14q0 -1 -4 -7t-4 -8q2 -1 5 -0.5t8 1.5t7 1q-7 -5 -11 -5q0 -1 8 -7q2 6 4.5 8t5 1t7 -3.5t6.5 -3.5
q5 -2 15 -3.5t13 -1.5q23 -6 30 -14q8 -9 -3 -26q-3 -4 -11 -11.5t-10 -13.5q-2 -5 -2 -15v-14q-2 -6 -3 -8t-4.5 -4t-6.5 -5q-2 -2 -3 -3.5t-1 -2t-1 -1.5t-5 -3q-3 -1 -9 -2.5t-10 -4t-7 -7.5q1 1 1 2q-2 -2 -3.5 -8.5t-2.5 -6.5q-3 -6 -14 -18l-6 -7.5t-11 -13.5t-6 -5
q0 1 -8.5 0t-8.5 1q0 -3 3 -4q-2 -16 -9.5 -21t-24.5 -5q1 -5 -1 -7t-6 -3.5t-5.5 -3.5t-3 -9t-2.5 -8q0 -1 -4.5 -7.5t-4.5 -8.5q-1 -1 5 -7q-22 -5 -46 -7q5 7 -6 8q1 3 5 8.5t6 8.5v4t1 4q1 4 1.5 5.5t0.5 2.5t-1 2.5t-1 4.5q-2 5 -1.5 12t1 9.5t3 9.5t4.5 11q3 11 5 33
t3 29q5 27 1 38q-1 4 -6 8.5t-12 9t-9 6.5q-7 7 -24 32q-10 15 -11 19q-6 7 -3 9t4 5v9.5t2 13.5q2 4 7.5 12t7.5 12q5 18 -8 22q-3 1 -8 -0.5t-7 -0.5q-8 1 -19 10q-4 2 -9 9.5t-9 10.5q-4 2 -10 2.5t-8 0.5q-4 2 -9.5 7.5t-8.5 6.5q-3 3 -11 1t-12 -1q-4 0 -15 6t-12 7
q-23 10 -30 29q-2 5 -4.5 9t-4.5 6.5t-6 7t-6.5 7.5t-6 8t-5.5 7t-5.5 4.5t-8.5 3.5q-1 1 1 -4.5t3 -7.5q2 -4 5 -8.5t7 -9.5t6 -8q7 -9 5 -10.5t-9 7.5q-29 41 -31 42q0 2 -2.5 7t-5.5 8l-9 6t-8 6q-25 22 -21 65q0 2 1.5 10t0.5 13q-1 8 -9 16q-1 1 -2.5 3t-2.5 4l-1 2
q-9 16 -15 20q-9 8 -24 18q68 84 167 125q0 -5 4 -10q1 -2 2.5 -3.5t4 -2.5t3.5 -1.5t5 -1t6 -1.5q-2 -14 -25 -11q-8 3 -17.5 2.5t-16.5 -6.5q16 -10 18 -8q1 1 1 5q20 1 32 -1q1 0 7 -1t9.5 -1.5t6.5 -0.5q1 1 2.5 6t2.5 6q-1 0 -4.5 0.5t-4.5 0.5q2 3 5 4t5 0.5t6.5 -3
t6.5 -3.5q-9 -6 -4 -12q3 -5 10 3q9 11 -13 23q8 9 13.5 9.5t13.5 -10.5q0 3 2 4.5t3.5 1.5t5.5 -0.5t5 -0.5v2q-1 0 -4.5 1t-5.5 0q3 5 4.5 9.5t3 6.5t6.5 4q3 1 12 1.5t16 1.5t9 5q-5 -1 -17.5 -2.5t-21.5 -4t-16 -5.5q-1 -1 -6.5 -5t-7.5 -4.5t-7 2.5q-5 4 -0.5 11
t11.5 11h-2q43 9 86 9q27 0 56 -4q-3 -2 -3.5 -4.5t-2.5 -4.5q-7 -5 -35 -16q2 0 16.5 -2.5t23.5 -1t12 9.5q-3 1 -7 1.5t-6 0.5q12 8 26 13q128 -25 219 -120h-2v0zM885 504q0 1 1.5 2t1.5 2q1 1 1.5 3.5t1.5 3.5t3.5 3t3.5 2q1 1 2 3q10 -29 16 -60v0v0q-2 -2 -9 -2
q-5 0 -11.5 6t-9.5 11q-2 2 -1 13q0 1 -1 7t1 6v0zM890 291q-16 14 -23 25q-3 4 -3.5 8.5t0.5 12t1 10.5q0 1 -1.5 15t1.5 15q1 2 4 4.5t3 3.5q2 3 3.5 8.5t4.5 8.5q2 4 8 7.5t8 4.5q1 1 9 16q6 10 14 16q5 -31 5 -62q0 -54 -14 -106q-7 2 -20 13v0z" />
    <glyph glyph-name="xiugainicheng" unicode="&#xe609;" 
d="M450 -88v41h574v-41h-574v0zM64 -88l-64 260l6 11v0l21 35v0l267 464v0l20 36v0l103 178l320 -185l-417 -725l-256 -74v0zM93 -37l195 57l-243 140l48 -197v0zM681 696l-249 144l-82 -143l249 -144l82 143v0zM329 662l-266 -464l248 -144l267 463l-249 145v0z" />
    <glyph glyph-name="dianzan1" unicode="&#xe656;" 
d="M508 -77q-95 0 -181 37t-148 99t-99 148t-37 181t37 181t99 148t148 99t181 37t181 -37t148 -99t99 -148t37 -181t-37 -181t-99 -148t-148 -99t-181 -37zM508 830q-90 0 -171.5 -35t-141 -94.5t-94.5 -141t-35 -171.5t35 -171.5t94.5 -141t141 -94.5t171.5 -35t171.5 35
t141 94.5t94.5 141t35 171.5t-35 171.5t-94.5 141t-141 94.5t-171.5 35zM796 418q17 -42 -14 -83q-4 -4 -2 -9q4 -12 2 -29q-8 -40 -30 -57q-2 -1 -2 -6q5 -39 -25 -65q-15 -12 -38 -14h-38h-45.5h-38.5q-43 1 -103 15q-40 9 -53 13q-4 1 -7 -2q-16 -27 -47 -27h-51
q-21 0 -36 15.5t-15 36.5v140v137q0 23 15 38.5t38 16.5h50q16 0 32 -11q3 -2 6 -1q26 11 40 24q30 26 40 69q5 19 5 39q1 21 13 35.5t32 17.5q20 4 39 -9q27 -18 43 -54q13 -27 12 -56q0 -34 -4 -51q0 -3 4 -4q3 0 10.5 -0.5t10.5 -0.5q40 0 81 -2q31 -2 39 -4
q44 -12 51 -52q5 -33 -12 -56q-3 0 -2 -4zM354 504q-1 -1 -24 -0.5t-24 0.5q-18 0 -18 -19v-274q0 -19 19 -20h47q20 0 20 20v136v137q0 10 -5.5 15t-14.5 5zM752 498q-9 2 -26 4q-45 1 -67 1h-89q-3 0 -3.5 0.5t-0.5 4.5q3 9 9 26q5 16 7 48q1 36 -13 62q-13 22 -30 30
q-9 5 -17 0t-8 -15q-1 -36 -9 -61q-24 -75 -96 -104q-9 -3 -12 -7.5t-3 -14.5v-232q0 -9 3 -13t12 -6l60 -15q67 -17 133 -16h28h51q15 0 23 7q11 8 13 26q0 9 -4.5 14t-13.5 5h-22h-7q-8 2 -8 9.5t8 8.5h5q31 0 38 1q19 3 26 16q8 15 9 30q1 16 -14 21q-3 1 -9 1h-33
q-11 0 -11 9t11 9h38q19 0 30.5 15t7.5 34q-5 19 -24 19h-35q-11 0 -11 9q0 10 11 10h5h33q27 1 29 26q0 2 1 4q-3 27 -25 34zM331 208q-11 0 -18.5 7.5t-7.5 19t7.5 19t18.5 7.5t19 -8t8 -18.5t-8 -18.5t-19 -8zM331 242q-8 0 -8 -8q0 -3 2.5 -5.5t5.5 -2.5q8 0 8 8t-8 8z
" />
    <glyph glyph-name="wujiaoxing-copy" unicode="&#xe631;" 
d="M475 847q15 31 37 31t37 -31l97 -199q15 -31 49.5 -56.5t68.5 -30.5l217 -32q34 -5 40.5 -26t-17.5 -45l-157 -155q-25 -24 -38 -65.5t-7 -75.5l37 -219q5 -34 -12 -47t-48 4l-194 103q-30 16 -73 16t-73 -16l-194 -103q-31 -17 -48 -4t-12 47l37 219q6 34 -7 75.5
t-38 65.5l-157 155q-24 24 -17.5 45t40.5 26l217 32q34 5 68.5 30.5t49.5 56.5z" />
    <glyph glyph-name="huodong" unicode="&#xe636;" 
d="M863 657h-30q23 40 20 75q-4 42 -45 69q-43 28 -104 13q-49 -12 -101.5 -50.5t-90.5 -89.5q-38 51 -90.5 89.5t-101.5 50.5q-61 15 -104 -13q-41 -27 -45 -69q-3 -35 20 -75h-30q-35 0 -59.5 -24.5t-24.5 -59.5v-108q0 -27 16.5 -49.5t42.5 -30.5q-5 -14 -5 -28v-324
q0 -35 24.5 -59.5t59.5 -24.5h594q35 0 59.5 24.5t24.5 59.5v324q0 15 -5 28q26 9 42.5 31t16.5 49v108q0 35 -24.5 59.5t-59.5 24.5zM809 9h-267v372h267q10 0 17 -7t7 -17v-324q0 -10 -7 -17t-17 -7zM575 657q32 37 71 63.5t72 35.5q36 9 57 -5q17 -11 18 -25
q3 -29 -35 -69h-183v0zM887 573v-108q0 -10 -7 -17t-17 -7h-321v156h321q10 0 17 -7t7 -17zM482 381v-372h-267q-10 0 -17 7t-7 17v324q0 10 7 17t17 7h267v0zM231 726q1 14 18 25q21 14 57 5q33 -8 72 -35t71 -64h-183q-12 13 -24.5 33t-10.5 36zM137 573q0 10 7 17t17 7
h321v-156h-321q-10 0 -17 7t-7 17v108v0zM137 573z" />
    <glyph glyph-name="chakan" unicode="&#xe654;" 
d="M878 392v4t-0.5 3.5l-0.5 1.5q0 4 -1 8q0 1 -1 2q-1 2 -2 3q-50 111 -150.5 179.5t-212.5 68.5t-212 -68t-151 -179q-1 -2 -1 -5l-0.5 -0.5l-0.5 -0.5q-1 -4 -1 -6l-1 -8v-5q0 -5 1 -6v-5v0q1 -3 2 -5q0 -1 1 -3q51 -111 151.5 -179.5t212.5 -68.5t212 68t150 178
q2 5 2 6q1 0 1 1l1 6v0q1 4 1 10v0zM511 638q107 0 201 -70t142 -172v-1v-1v-1.5v-1v-1v-0.5v0v-1l-0.5 -0.5l-0.5 -0.5q-48 -103 -141 -173t-202 -70t-204 72t-143 176l-0.5 0.5l-0.5 0.5v1v1v1l0.5 1l0.5 1v1q45 97 147.5 167.5t200.5 70.5zM510.5 515q-50.5 0 -86.5 -36
t-36 -86.5t36 -86.5t86.5 -36t86.5 36t36 87q0 50 -36 86t-86.5 36zM510.5 291q-42.5 0 -72 29.5t-29.5 72t29.5 72.5t72 30t72.5 -30t30 -72.5t-30 -72t-72.5 -29.5z" />
    <glyph glyph-name="jia" unicode="&#xe640;" 
d="M832 374h-640q-4 0 -7 3t-3 7q0 10 10 10h640q10 0 10 -10q0 -4 -3 -7t-7 -3zM522 704v-640q0 -4 -3 -7t-7 -3q-10 0 -10 10v640q0 10 10 10q4 0 7 -3t3 -7z" />
    <glyph glyph-name="xinfeng" unicode="&#xe60f;" horiz-adv-x="1035" 
d="M1019 145q0 -67 -47.5 -114t-114.5 -47h-692q-67 0 -114 47t-47 114v484q0 67 47 114.5t114 47.5h692q67 0 114.5 -47.5t47.5 -114.5v-484zM973 630q0 47 -34 81t-82 34h-692q-48 0 -81.5 -34t-33.5 -81v-485q0 -48 33.5 -81.5t81.5 -33.5h692q48 0 82 33.5t34 81.5v485z
M522.5 342q-33.5 0 -59.5 22l-394 331q-7 7 -8 16.5t5.5 16.5t16 8t16.5 -5l393 -332q14 -11 30.5 -11t29.5 11l394 332q7 6 16.5 5t16 -8t5.5 -16.5t-8 -16.5l-394 -331q-26 -22 -59.5 -22z" />
    <glyph glyph-name="apphengsandian" unicode="&#xe642;" 
d="M512 469q34 0 59 -24.5t25 -59t-25 -59.5t-59.5 -25t-59 25t-24.5 59.5t24.5 59t59.5 24.5v0zM844 469q35 0 59.5 -24.5t24.5 -59t-24.5 -59.5t-59.5 -25t-59.5 25t-24.5 59.5t24.5 59t59.5 24.5v0zM179 469q35 0 59.5 -24.5t24.5 -59t-24.5 -59.5t-59.5 -25t-59.5 25
t-24.5 59.5t24.5 59t59.5 24.5v0zM148 469z" />
    <glyph glyph-name="zanwulishixinxi" unicode="&#xe669;" 
d="M691 -128h-275q-8 0 -8 8t8 8h275q8 0 8 -8t-8 -8zM678 776q-15 0 -19 13l-20 65q-2 8 1.5 15t11.5 9.5t15 -1.5t9 -11l20 -65q2 -8 -1.5 -15t-11.5 -10h-5zM905 620h-3l-67 9q-8 1 -13 7.5t-4 14.5t7.5 12.5t14.5 3.5l68 -9q8 -1 12.5 -7t3.5 -14t-6.5 -12.5t-12.5 -4.5
zM790 746q-8 0 -14 6t-5.5 14t5.5 13l54 51q6 6 14 6t13.5 -6t5.5 -14t-6 -14l-54 -51q-5 -5 -13 -5zM969 -74h-413q1 2 0 5q-2 9 -12 7q-27 -7 -56 -11q-2 0 -4 -1h-52q-1 0 -2 -1q-15 1 -29 3q-9 1 -10.5 -8.5t8.5 -11.5l30 -2h3h537q10 0 10 10t-10 10zM622 645
q26 -13 49 -30q2 -1 5 -1q5 0 8 3q6 8 -2 14q-24 18 -51 32q-8 4 -12.5 -4.5t3.5 -13.5zM625 -30q-25 -14 -52 -23q-9 -3 -6 -13q3 -6 9 -6q2 0 4 1q28 10 54 24q9 4 4.5 12.5t-13.5 4.5zM455 688q29 0 57 -5h1q8 0 10 8q1 9 -8 11q-30 5 -60 6q-9 0 -9.5 -9.5t9.5 -10.5z
M541 677q28 -8 54 -19h4q6 0 9 5q4 9 -5 13q-28 12 -57 19q-9 3 -11.5 -6.5t6.5 -11.5zM366 680q1 0 2 1q28 5 57 7q9 1 8.5 10.5t-9.5 8.5q-30 -1 -60 -7q-9 -2 -7 -12q1 -8 9 -8zM694 597q22 -19 41 -41q3 -3 7 -3t6 2q8 7 1 14q-19 23 -42 42q-7 7 -13.5 -0.5t0.5 -13.5z
M797 457q11 -26 18 -53q2 -8 10 -8q1 0 2 1q9 2 7 11q-8 29 -19 57q-4 9 -13 5t-5 -13zM754 533q16 -23 30 -48q2 -6 8 -6q3 0 5 2q8 4 4 13q-14 26 -32 50q-6 8 -13.5 2.5t-1.5 -13.5zM829.5 385q-9.5 -2 -7.5 -11v-4q2 -8 10 -8h2q9 1 8 11q-1 2 -1 4q-2 10 -11.5 8z
M769 85.5q-8 5.5 -14 -1.5q-16 -24 -36 -44q-7 -7 0 -14q3 -2 7 -2t7 2q21 22 38 46q6 8 -2 13.5zM775 95q3 -1 6 -1q5 0 8 5q15 25 27 53q4 9 -5 12.5t-13 -5.5q-11 -26 -26 -50q-5 -9 3 -14zM697 19q-22 -19 -46 -34q-8 -5 -3 -13q3 -5 9 -5q2 0 5 2q25 16 48 36
q7 6 0.5 13.5t-13.5 0.5zM67 207q10 2 7 12q-6 28 -9 56q0 10 -10 9t-9 -11q3 -30 9 -59q2 -7 10 -7h2zM118 110q-5 9 -13 4t-3 -14q15 -25 34 -48q3 -4 8 -4q3 0 6 2q7 7 1 14q-18 22 -33 46zM104 137q-13 26 -22 53q-3 9 -12 6t-6 -12q9 -29 22 -56q3 -5 9 -5q2 0 5 1
q8 4 4 13zM214 4q-23 17 -43 38q-6 6 -13 -0.5t-1 -13.5q21 -22 45 -40q3 -2 6 -2q5 0 8 4q6 8 -2 14zM371 -68q-28 6 -54 16q-10 3 -13 -6t6 -13q28 -10 58 -16h2q8 0 9 8q2 10 -8 11zM289 -41q-26 12 -50 27q-9 5 -14 -3t3 -13q25 -16 53 -29q1 -1 4 -1q6 0 8 6q4 9 -4 13
zM90 469q2 -1 4 -1q6 0 9 6q12 25 28 49q6 8 -2 13.5t-14 -2.5q-17 -25 -30 -52q-4 -8 5 -13zM136 546q2 -2 6 -2t7 3q18 22 39 42q7 6 0.5 13t-13.5 1q-22 -20 -41 -44q-6 -7 2 -13zM205 606q4 0 6 2q23 18 48 32q8 4 3.5 12.5t-13.5 4.5q-26 -15 -49 -34q-8 -5 -2 -13
q3 -4 7 -4zM282 653h4q26 12 53 20q9 3 6.5 12.5t-12.5 6.5q-28 -8 -55 -21q-9 -4 -5 -13q2 -5 9 -5zM54 296v0q10 0 10 9v2q0 28 4 55q1 10 -8.5 11t-10.5 -8q-4 -29 -4 -58v-2q0 -9 9 -9zM62 384h2q8 0 10 8q6 28 16 54q4 9 -5 12.5t-13 -5.5q-11 -28 -17 -57q-2 -9 7 -12
zM402 172l59 22l-14 38l-59 -22q-37 -15 -47 10q-9 24 28 39l34 12l-126 94q-15 11 -20 16t-8 13q-6 13 -0.5 24.5t18.5 16.5t24.5 0t29.5 -19l135 -100l29 154q1 8 3 19q1 10 3.5 17t8 13.5t14.5 9.5q13 5 24.5 0t15.5 -16q3 -9 3 -18t-3 -23l-28 -154l33 13q37 14 46 -10
q10 -25 -27 -39l-60 -23l15 -37l59 22q37 14 47 -10q9 -25 -28 -39l-60 -22l8 -21q21 -54 -15 -67q-36 -14 -56 39l-8 21l-59 -22q-38 -14 -47 10q-9 25 28 39z" />
    <glyph glyph-name="renwu4" unicode="&#xe64c;" 
d="M311 557h222v-29h-222v29zM311 423h222v-29h-222v29zM311 289h402v-29h-402v29zM311 156h402v-29h-402v29zM872 593l-1 1q-1 5 -3 7l-243 243q-2 2 -6 3q-1 1 -2 1h-1h-1h-358q-44 0 -74.5 -31t-30.5 -74v-718q0 -43 30.5 -74t74.5 -31h510q44 0 74.5 31t30.5 74v566v0.5
v1.5v0zM823 605h-117q-32 0 -54.5 22.5t-22.5 53.5v117zM767 -51h-510q-32 0 -54 22.5t-22 53.5v718q0 31 22 53.5t54 22.5h343v-138q0 -43 31 -74t75 -31h137v-551q0 -31 -22 -53.5t-54 -22.5v0v0zM767 -51z" />
    <glyph glyph-name="zhifubao2" unicode="&#xe679;" 
d="M512 -127q-104 0 -199 40q-92 39 -162.5 110t-109.5 162q-40 95 -40 199.5t40 199.5q39 91 109.5 162t162.5 110q95 40 199 40t199 -40q92 -39 162.5 -110t109.5 -162q40 -95 40 -199t-40 -200q-39 -91 -109.5 -162t-162.5 -110q-95 -40 -199 -40v0zM512 861
q-97 0 -185 -37q-86 -37 -152 -102.5t-102 -151.5q-37 -89 -37 -185.5t37 -185.5q36 -85 102 -151t152 -102q88 -38 185 -38t185 38q86 36 152 102t102 151q37 89 37 186t-37 185q-36 86 -102 151.5t-152 102.5q-88 37 -185 37v0zM608 331q23 43 41.5 90t24.5 72l6 26h-9v0
h-82h-87v68h212v29h-212v101h-97v-101h-192v-29h192v-68h-164v-29h333q0 -3 -8 -26.5t-19.5 -54.5t-20.5 -49q-36 14 -69 24.5t-59 16.5t-50 9.5t-41.5 4.5t-34.5 -0.5t-27 -3.5t-21.5 -6t-16 -6t-11.5 -6t-8 -4q-46 -33 -63 -71.5t-9 -70.5t24.5 -59t35.5 -41.5t27 -13.5
q216 -48 361 126q5 -5 15 -5q24 -13 101 -50.5t142.5 -68.5l65.5 -31v145q-7 0 -16.5 1.5t-23.5 5t-27 7t-33 9.5t-34 10.5t-37.5 12.5t-36.5 12t-38 12.5t-34 11.5v0zM483 288q-34 -44 -74.5 -70t-72.5 -34t-65.5 -7t-49.5 5t-28 9q-21 6 -35 26t-16.5 44t9.5 48.5t37 36.5
q43 13 86.5 14.5t83.5 -8.5t69.5 -21t64.5 -29l-9 -14v0z" />
    <glyph glyph-name="nv" unicode="&#xe615;" 
d="M743 339q94 93 94 225.5t-94 226.5t-226.5 94t-226 -94t-93.5 -226.5t94 -225.5q82 -82 197 -93v-142h-144q-10 0 -17 -7t-7 -17t7 -17t17 -7h144v-144q0 -10 7 -17t17 -7t17 7t7 17v144h144q10 0 17 7t7 17t-7 17t-17 7h-144v142q122 7 207 93zM245 565
q0 113 79.5 192.5t192.5 79.5t192.5 -79.5t79.5 -192.5t-79.5 -192.5t-192.5 -79.5t-192.5 79.5t-79.5 192.5z" />
    <glyph glyph-name="pinglun1" unicode="&#xe655;" 
d="M515 66q-35 0 -66 6q-70 13 -129 53q-74 51 -115 132q-36 71 -38 151q-2 74 25 142q41 100 132 160q46 31 100 46q55 15 113 11q55 -3 106 -23q57 -23 104 -64q47 -43 77 -100q31 -60 38 -127q2 -25 1 -47q-2 -37 -13 -81q-16 -62 -48 -121v-1q0 -33 1 -53q-1 -48 0 -66
q-1 -2 -1 -3q-2 -7 -8 -10q-2 0 -5 -1q-25 0 -90.5 -1.5t-101.5 -1.5q-48 -1 -82 -1v0zM515 94q52 0 244 4h16q-1 10 -0.5 27.5t0.5 24.5q0 18 -1 57v2q1 1 1 3q0 1 5 9q2 3 5 11q25 50 38 100q10 41 12 76q1 22 -2 46q-6 60 -34 113q-27 52 -71 91q-43 38 -96 59
q-46 19 -97 22q-53 4 -104 -10q-49 -14 -92 -42q-80 -53 -118 -141q-27 -61 -27 -129q0 -74 32 -140q35 -74 100 -122q53 -39 116 -53q29 -7 60 -8h13v0zM354 358q-13 1 -24 6q-9 4 -16.5 11.5t-12.5 17.5q-4 9 -5 18t1 18q6 28 32 41q11 5 22.5 5.5t22.5 -3.5q10 -3 18 -10
t13 -16q4 -7 6 -16q2 -8 1 -17q-2 -30 -27 -46q-11 -7 -25 -8q-3 -1 -6 -1v0zM354 387q7 0 13 2q5 3 9 6.5t6 9.5q2 4 2 8q3 22 -17 32q-5 2 -11 2.5t-12 -1.5q-5 -2 -9 -6q-4 -3 -7 -8q-2 -4 -3 -8q-5 -22 14 -33q5 -4 12 -4h3v0zM515 358q-14 0 -25 6q-26 13 -32 41
q-2 9 -1 18t4 17q4 10 11.5 17.5t17.5 12.5t22 5.5t23 -3.5q10 -4 18 -11t13 -16q4 -8 6 -16t1 -17q-2 -30 -28 -45q-11 -7 -24 -9h-6v0zM515 386q7 0 13 3q19 10 17 31q0 4 -2 9t-6 9t-9 6q-6 3 -12 3.5t-12 -1.5q-5 -2 -9 -6t-7 -9q-2 -4 -3 -8q-4 -21 14 -32q6 -4 13 -5
h3v0zM676 358q-14 0 -26 6q-25 12 -31 40q-2 9 -1 19q1 9 5 18t11 16q7 8 16 13q11 5 23 5.5t23 -3.5q10 -4 18 -11t13 -16q4 -8 6 -16q1 -8 1 -17q-2 -30 -28 -45q-11 -7 -24 -9h-6v0zM676 386q7 0 13 3q20 10 17 32q-1 4 -3 8q-2 5 -5 9q-4 4 -9 6q-6 3 -12 3.5t-12 -1.5
q-5 -2 -9 -6t-7 -9q-2 -4 -3 -8q-4 -21 14 -32q6 -4 13 -5h3v0z" />
    <glyph glyph-name="a3bi" unicode="&#xe61f;" 
d="M939 -114h-836q-13 0 -24 8h-0.5h-1.5q-11 0 -20 7q-13 11 -11 28l28 274q1 9 7 17l400 481q9 10 22 11t23 -7l235 -200q10 -9 11 -22t-7 -23l-399 -480q-7 -8 -16 -10l-77 -22h665h16t12 -2t10.5 -6.5t2.5 -12.5q0 -16 -11.5 -28.5t-28.5 -12.5v0zM696 477l-187 159
l-373 -450l-22 -217l209 59l373 449v0zM833 541l-284 240l45 54q40 47 100 47q45 0 80 -29l91 -77q40 -34 44 -87t-30 -94l-46 -54v0zM824 727l-91 77q-19 16 -46 13t-44 -23l-5 -5l187 -158l5 5q18 21 16 48t-22 43v0z" />
    <glyph glyph-name="wenti" unicode="&#xe697;" 
d="M513 583q-53 0 -86 -36.5t-33 -111.5t33 -112.5t83 -37.5q19 0 36 6q-27 18 -54 27l25 50q42 -15 81 -44q17 20 25 47q9 28 9 64q0 75 -33 111.5t-86 36.5zM897 439q0 106 -51.5 196.5t-140 143t-193.5 52.5t-193.5 -52.5t-140 -143t-51.5 -196.5q0 -92 39 -172.5
t106 -135.5v0q42 -39 101.5 -73.5t113 -56t103.5 -36.5t77.5 -21.5t30.5 -6.5l-35 140q105 46 169.5 144t64.5 218zM706 177q-20 6 -39 17q-4 1 -58 38q-42 -19 -93 -19q-99 0 -155 58.5t-56 163.5q0 106 56 164.5t153 58.5q95 0 151 -58.5t56 -164.5q0 -55 -15 -98
q-12 -32 -38 -62q32 -23 70 -36z" />
    <glyph glyph-name="dianxin" unicode="&#xe68f;" 
d="M896 625q-2 55 -64 89t-159 40l11 -42q78 -17 76 -70q-2 -46 -79 -94t-180 -69q10 68 31 113.5t44 50.5q23 4 37 -13q0 -1 1 -1l31 9q-24 52 -56 81t-67 29q-60 0 -107 -79t-61 -199q-52 5 -83 24t-30 49q0 33 40 69t103 63l-9 31q-108 -42 -177.5 -105.5t-69.5 -124.5
q0 -57 61 -92.5t160 -40.5q7 -139 56.5 -233.5t116.5 -94.5q60 0 106.5 78.5t60.5 200.5l-53 -14q-9 -65 -27.5 -105.5t-40.5 -40.5q-28 0 -48.5 62.5t-24.5 155.5q14 3 20 4q104 20 192.5 63.5t139.5 98.5t49 107z" />
    <glyph glyph-name="yidong" unicode="&#xe690;" 
d="M216 489v0q8 -7 16 1q127 124 190 174q58 45 120 45t128 -50q48 -39 101 -95q60 -65 125 -161q0 15 -4 34q-2 8 -5 14q-30 59 -89 129q-44 52 -85 89.5t-62 51t-47 27.5q-29 15 -66 19t-86.5 -10t-93.5 -50q-49 -40 -107.5 -93.5t-78.5 -75.5q17 -22 44 -49zM808 279v0
q-8 7 -16 -2q-127 -124 -190 -173q-58 -45 -120 -45.5t-128 50.5q-48 38 -101 94q-60 66 -125 161q0 -14 4 -34q2 -7 5 -13q30 -60 89 -130q44 -52 85.5 -89t62 -51t46.5 -28q29 -15 66 -19t86.5 10.5t93.5 50.5q50 41 108.5 94.5t77.5 74.5q-17 22 -44 49zM389 134v0
q87 -48 160 6q25 19 105 93.5t102 99.5q-20 23 -50 48q-12 11 -26 -3q-36 -37 -101 -96t-82 -73q-68 -58 -139 -5q-70 53 -134 126.5t-90 113.5q-3 -13 -4 -24q0 -13 3 -18q70 -102 143 -174t113 -94zM680 501v0q-31 25 -59 24q-28 0 -54 -23q-2 -2 -7 -6t-7 -6
q-18 -16 -59 -53.5t-74.5 -68t-34.5 -31.5q-16 -15 -35 -14q-20 1 -38 19q-1 1 -17.5 15t-39.5 36t-45 47l-56 66q-6 -11 -9 -20q-3 -7 1 -12q18 -27 73 -87t124 -120q29 -25 58 -24q29 0 55 23q1 2 6 6t8 6q1 1 16 14q30 27 135 124q16 14 16 15q17 15 36 14q18 -1 38 -19
q41 -35 102 -98q14 -16 27.5 -32t20.5 -24.5t7 -9.5q6 13 9 21q4 9 -1 12q-44 59 -103.5 119t-92.5 87zM635 634v0q-87 48 -160 -6q-25 -19 -105 -93.5t-102 -99.5q20 -23 50 -48q12 -11 26 3q36 37 101 96t82 73q33 28 68.5 29.5t69.5 -24.5q71 -53 135 -127t90 -113
q3 13 4 24q0 13 -3 18q-70 102 -143 174t-113 94z" />
    <glyph glyph-name="jinbi1" unicode="&#xe696;" 
d="M512 420q100 0 189 20t149 62.5t60 98.5t-60 98.5t-149 62.5t-189 20t-189 -20t-149 -62.5t-60 -98.5t60 -98.5t149 -62.5t189 -20zM512 710q71 0 134 -11t104 -27t64.5 -35t23.5 -36t-23.5 -35.5t-64.5 -35t-104 -27t-134 -10.5t-134 10.5t-104 27t-64.5 35t-23.5 35.5
t23.5 36t64.5 35t104 27t134 11zM186 449q-12 9 -27 6.5t-23 -14.5q-23 -30 -22 -64q1 -41 34.5 -75.5t96.5 -58.5q106 -40 254 -40h7.5h8.5q100 2 188.5 23.5t148 65t58.5 99.5q0 26 -14 49q-8 13 -22.5 17t-27.5 -4q-13 -7 -16.5 -21.5t4.5 -27.5q4 -8 4 -14
q0 -17 -23 -36.5t-63.5 -36.5t-103.5 -28.5t-134 -13.5q-145 -1 -243 36q-38 14 -61 32.5t-24 34.5q0 10 8 20q9 13 6.5 27.5t-14.5 23.5zM841.5 234.5q-12.5 -8.5 -15.5 -23t5 -27.5q7 -9 7 -17q0 -17 -23.5 -36t-64.5 -35t-104 -27t-134 -11t-134 11t-104 27t-64.5 35
t-23.5 36q0 8 6 17q8 12 5 27t-15.5 23t-27 5t-23.5 -16q-17 -26 -17 -56q0 -56 60 -98.5t149 -62.5t189 -20t189 20t149 62.5t60 98.5q0 30 -18 58q-9 12 -23.5 15t-27 -5.5z" />
    <glyph glyph-name="iconfontduigou" unicode="&#xe65d;" horiz-adv-x="1025" 
d="M512 896q-104 0 -199 -40.5t-163.5 -109t-109 -163.5t-40.5 -199t40.5 -199t109 -163.5t163.5 -109t199 -40.5t199 40.5t163.5 109t109 163.5t40.5 199t-40.5 199t-109 163.5t-163.5 109t-199 40.5zM806 517l-331 -331h-1q-11 -12 -27 -13.5t-29 6.5q-5 3 -9 7v0
l-191 190q-13 14 -13 33t13.5 32.5t32.5 13.5t33 -13l158 -158l298 298q14 14 33 14t32.5 -13.5t13.5 -33t-13 -32.5z" />
    <glyph glyph-name="jibenxinxi" unicode="&#xe69d;" 
d="M512 832q-91 0 -173.5 -35.5t-142.5 -95.5t-95.5 -142.5t-35.5 -173.5t35.5 -174t95.5 -143t142.5 -95.5t173.5 -35.5t174 35.5t143 95.5t95.5 143t35.5 174t-35.5 173.5t-95.5 142.5t-143 95.5t-174 35.5zM512 -7q-106 0 -196 52.5t-142.5 143t-52.5 196.5t52.5 196
t142.5 142.5t196 52.5t196.5 -52.5t143 -142.5t52.5 -196t-52.5 -196.5t-143 -143t-196.5 -52.5zM316 525h392v55h-392v-55zM316 357h392v56h-392v-56zM316 189h392v56h-392v-56z" />
    <glyph glyph-name="guanyuwomen" unicode="&#xe698;" 
d="M768 545q0 -108 -70 -183q-69 -30 -111 -94.5t-42 -143.5q0 -103 69 -179h-566q16 125 96 220.5t196 134.5q-64 36 -103 101.5t-39 143.5q0 118 83.5 201.5t201.5 83.5t201.5 -83.5t83.5 -201.5zM793.5 315q-76.5 0 -129.5 -55t-53 -132q0 -76 54 -131t128 -55
q77 0 130 54.5t53 131.5t-53 132t-129.5 55zM793 29l-18 -21l-95 102l33 33l59 -62l113 142l36 -29l-128 -165v0z" />
    <glyph glyph-name="youxiang" unicode="&#xe699;" 
d="M205 683h614q32 0 54.5 -22t22.5 -52l-384 -209l-384 209q1 30 23 52t54 22zM128 529v-369q0 -31 22.5 -53t54.5 -22h614q32 0 54.5 22t22.5 53v369l-375 -199q-9 -5 -18 0z" />
    </font>
</defs>
</svg>
